M48
; DRILL file {KiCad (5.1.8)-1} date 10/05/21 14:24:23
; FORMAT={-:-/ absolute / metric / decimal}
; #@! TF.CreationDate,2021-10-05T14:24:23+02:00
; #@! TF.GenerationSoftware,Kicad,Pcbnew,(5.1.8)-1
; #@! TF.FileFunction,NonPlated,1,2,NPTH
FMAT,2
METRIC
T1C1.700
T2C3.050
T3C4.000
%
G90
G05
T1
X166.497Y-100.203
X96.012Y-50.038
X106.172Y-50.038
X135.89Y-50.165
X146.05Y-50.165
X115.951Y-100.203
X126.111Y-100.203
X175.895Y-50.292
X186.055Y-50.292
X176.657Y-100.203
X55.88Y-50.165
X66.04Y-50.165
X65.278Y-100.076
X75.438Y-100.076
T2
X159.677Y-93.203
X183.477Y-93.203
X58.458Y-93.076
X82.258Y-93.076
X109.131Y-93.203
X132.931Y-93.203
T3
X140.97Y-50.165
X121.031Y-100.203
X180.975Y-50.292
X58.458Y-108.316
X70.358Y-100.076
X82.258Y-108.316
X109.131Y-108.443
X132.931Y-108.443
X159.677Y-108.443
X171.577Y-100.203
X183.477Y-108.443
X60.96Y-50.165
X101.092Y-50.038
T0
M30
