%TF.GenerationSoftware,KiCad,Pcbnew,(5.1.8)-1*%
%TF.CreationDate,2021-10-05T14:24:12+02:00*%
%TF.ProjectId,WPP Control box,57505020-436f-46e7-9472-6f6c20626f78,rev?*%
%TF.SameCoordinates,Original*%
%TF.FileFunction,Legend,Top*%
%TF.FilePolarity,Positive*%
%FSLAX46Y46*%
G04 Gerber Fmt 4.6, Leading zero omitted, Abs format (unit mm)*
G04 Created by KiCad (PCBNEW (5.1.8)-1) date 2021-10-05 14:24:12*
%MOMM*%
%LPD*%
G01*
G04 APERTURE LIST*
%ADD10C,0.300000*%
%ADD11C,0.010000*%
%ADD12C,0.120000*%
%ADD13C,0.150000*%
G04 APERTURE END LIST*
D10*
X63047857Y-74399857D02*
X63333571Y-75599857D01*
X63562142Y-74742714D01*
X63790714Y-75599857D01*
X64076428Y-74399857D01*
X64533571Y-75599857D02*
X64533571Y-74399857D01*
X64990714Y-74399857D01*
X65104999Y-74457000D01*
X65162142Y-74514142D01*
X65219285Y-74628428D01*
X65219285Y-74799857D01*
X65162142Y-74914142D01*
X65104999Y-74971285D01*
X64990714Y-75028428D01*
X64533571Y-75028428D01*
X65733571Y-75599857D02*
X65733571Y-74399857D01*
X66190714Y-74399857D01*
X66304999Y-74457000D01*
X66362142Y-74514142D01*
X66419285Y-74628428D01*
X66419285Y-74799857D01*
X66362142Y-74914142D01*
X66304999Y-74971285D01*
X66190714Y-75028428D01*
X65733571Y-75028428D01*
X68362142Y-75599857D02*
X68362142Y-74971285D01*
X68305000Y-74857000D01*
X68190714Y-74799857D01*
X67962142Y-74799857D01*
X67847857Y-74857000D01*
X68362142Y-75542714D02*
X68247857Y-75599857D01*
X67962142Y-75599857D01*
X67847857Y-75542714D01*
X67790714Y-75428428D01*
X67790714Y-75314142D01*
X67847857Y-75199857D01*
X67962142Y-75142714D01*
X68247857Y-75142714D01*
X68362142Y-75085571D01*
X69447857Y-74799857D02*
X69447857Y-75599857D01*
X68933571Y-74799857D02*
X68933571Y-75428428D01*
X68990714Y-75542714D01*
X69105000Y-75599857D01*
X69276428Y-75599857D01*
X69390714Y-75542714D01*
X69447857Y-75485571D01*
X70533571Y-75599857D02*
X70533571Y-74399857D01*
X70533571Y-75542714D02*
X70419285Y-75599857D01*
X70190714Y-75599857D01*
X70076428Y-75542714D01*
X70019285Y-75485571D01*
X69962142Y-75371285D01*
X69962142Y-75028428D01*
X70019285Y-74914142D01*
X70076428Y-74857000D01*
X70190714Y-74799857D01*
X70419285Y-74799857D01*
X70533571Y-74857000D01*
X71105000Y-75599857D02*
X71105000Y-74799857D01*
X71105000Y-74399857D02*
X71047857Y-74457000D01*
X71105000Y-74514142D01*
X71162142Y-74457000D01*
X71105000Y-74399857D01*
X71105000Y-74514142D01*
X71847857Y-75599857D02*
X71733571Y-75542714D01*
X71676428Y-75485571D01*
X71619285Y-75371285D01*
X71619285Y-75028428D01*
X71676428Y-74914142D01*
X71733571Y-74857000D01*
X71847857Y-74799857D01*
X72019285Y-74799857D01*
X72133571Y-74857000D01*
X72190714Y-74914142D01*
X72247857Y-75028428D01*
X72247857Y-75371285D01*
X72190714Y-75485571D01*
X72133571Y-75542714D01*
X72019285Y-75599857D01*
X71847857Y-75599857D01*
X72762142Y-75599857D02*
X72762142Y-74399857D01*
X72762142Y-74857000D02*
X72876428Y-74799857D01*
X73105000Y-74799857D01*
X73219285Y-74857000D01*
X73276428Y-74914142D01*
X73333571Y-75028428D01*
X73333571Y-75371285D01*
X73276428Y-75485571D01*
X73219285Y-75542714D01*
X73105000Y-75599857D01*
X72876428Y-75599857D01*
X72762142Y-75542714D01*
X74019285Y-75599857D02*
X73905000Y-75542714D01*
X73847857Y-75485571D01*
X73790714Y-75371285D01*
X73790714Y-75028428D01*
X73847857Y-74914142D01*
X73905000Y-74857000D01*
X74019285Y-74799857D01*
X74190714Y-74799857D01*
X74305000Y-74857000D01*
X74362142Y-74914142D01*
X74419285Y-75028428D01*
X74419285Y-75371285D01*
X74362142Y-75485571D01*
X74305000Y-75542714D01*
X74190714Y-75599857D01*
X74019285Y-75599857D01*
X75105000Y-75599857D02*
X74990714Y-75542714D01*
X74933571Y-75485571D01*
X74876428Y-75371285D01*
X74876428Y-75028428D01*
X74933571Y-74914142D01*
X74990714Y-74857000D01*
X75105000Y-74799857D01*
X75276428Y-74799857D01*
X75390714Y-74857000D01*
X75447857Y-74914142D01*
X75505000Y-75028428D01*
X75505000Y-75371285D01*
X75447857Y-75485571D01*
X75390714Y-75542714D01*
X75276428Y-75599857D01*
X75105000Y-75599857D01*
X76019285Y-75599857D02*
X76019285Y-74399857D01*
X76133571Y-75142714D02*
X76476428Y-75599857D01*
X76476428Y-74799857D02*
X76019285Y-75257000D01*
X78419285Y-75542714D02*
X78305000Y-75599857D01*
X78076428Y-75599857D01*
X77962142Y-75542714D01*
X77905000Y-75485571D01*
X77847857Y-75371285D01*
X77847857Y-75028428D01*
X77905000Y-74914142D01*
X77962142Y-74857000D01*
X78076428Y-74799857D01*
X78305000Y-74799857D01*
X78419285Y-74857000D01*
X79105000Y-75599857D02*
X78990714Y-75542714D01*
X78933571Y-75485571D01*
X78876428Y-75371285D01*
X78876428Y-75028428D01*
X78933571Y-74914142D01*
X78990714Y-74857000D01*
X79105000Y-74799857D01*
X79276428Y-74799857D01*
X79390714Y-74857000D01*
X79447857Y-74914142D01*
X79505000Y-75028428D01*
X79505000Y-75371285D01*
X79447857Y-75485571D01*
X79390714Y-75542714D01*
X79276428Y-75599857D01*
X79105000Y-75599857D01*
X80019285Y-74799857D02*
X80019285Y-75599857D01*
X80019285Y-74914142D02*
X80076428Y-74857000D01*
X80190714Y-74799857D01*
X80362142Y-74799857D01*
X80476428Y-74857000D01*
X80533571Y-74971285D01*
X80533571Y-75599857D01*
X80933571Y-74799857D02*
X81390714Y-74799857D01*
X81105000Y-74399857D02*
X81105000Y-75428428D01*
X81162142Y-75542714D01*
X81276428Y-75599857D01*
X81390714Y-75599857D01*
X81790714Y-75599857D02*
X81790714Y-74799857D01*
X81790714Y-75028428D02*
X81847857Y-74914142D01*
X81905000Y-74857000D01*
X82019285Y-74799857D01*
X82133571Y-74799857D01*
X82705000Y-75599857D02*
X82590714Y-75542714D01*
X82533571Y-75485571D01*
X82476428Y-75371285D01*
X82476428Y-75028428D01*
X82533571Y-74914142D01*
X82590714Y-74857000D01*
X82705000Y-74799857D01*
X82876428Y-74799857D01*
X82990714Y-74857000D01*
X83047857Y-74914142D01*
X83105000Y-75028428D01*
X83105000Y-75371285D01*
X83047857Y-75485571D01*
X82990714Y-75542714D01*
X82876428Y-75599857D01*
X82705000Y-75599857D01*
X83790714Y-75599857D02*
X83676428Y-75542714D01*
X83619285Y-75428428D01*
X83619285Y-74399857D01*
X84419285Y-75599857D02*
X84305000Y-75542714D01*
X84247857Y-75428428D01*
X84247857Y-74399857D01*
X85790714Y-75599857D02*
X85790714Y-74399857D01*
X85790714Y-74857000D02*
X85905000Y-74799857D01*
X86133571Y-74799857D01*
X86247857Y-74857000D01*
X86305000Y-74914142D01*
X86362142Y-75028428D01*
X86362142Y-75371285D01*
X86305000Y-75485571D01*
X86247857Y-75542714D01*
X86133571Y-75599857D01*
X85905000Y-75599857D01*
X85790714Y-75542714D01*
X87047857Y-75599857D02*
X86933571Y-75542714D01*
X86876428Y-75485571D01*
X86819285Y-75371285D01*
X86819285Y-75028428D01*
X86876428Y-74914142D01*
X86933571Y-74857000D01*
X87047857Y-74799857D01*
X87219285Y-74799857D01*
X87333571Y-74857000D01*
X87390714Y-74914142D01*
X87447857Y-75028428D01*
X87447857Y-75371285D01*
X87390714Y-75485571D01*
X87333571Y-75542714D01*
X87219285Y-75599857D01*
X87047857Y-75599857D01*
X87847857Y-75599857D02*
X88476428Y-74799857D01*
X87847857Y-74799857D02*
X88476428Y-75599857D01*
X89733571Y-74799857D02*
X90019285Y-75599857D01*
X90305000Y-74799857D01*
X91390714Y-75599857D02*
X90705000Y-75599857D01*
X91047857Y-75599857D02*
X91047857Y-74399857D01*
X90933571Y-74571285D01*
X90819285Y-74685571D01*
X90705000Y-74742714D01*
X91905000Y-75485571D02*
X91962142Y-75542714D01*
X91905000Y-75599857D01*
X91847857Y-75542714D01*
X91905000Y-75485571D01*
X91905000Y-75599857D01*
X92705000Y-74399857D02*
X92819285Y-74399857D01*
X92933571Y-74457000D01*
X92990714Y-74514142D01*
X93047857Y-74628428D01*
X93105000Y-74857000D01*
X93105000Y-75142714D01*
X93047857Y-75371285D01*
X92990714Y-75485571D01*
X92933571Y-75542714D01*
X92819285Y-75599857D01*
X92705000Y-75599857D01*
X92590714Y-75542714D01*
X92533571Y-75485571D01*
X92476428Y-75371285D01*
X92419285Y-75142714D01*
X92419285Y-74857000D01*
X92476428Y-74628428D01*
X92533571Y-74514142D01*
X92590714Y-74457000D01*
X92705000Y-74399857D01*
X142284142Y-116375571D02*
X142284142Y-114875571D01*
X142284142Y-115589857D02*
X143141285Y-115589857D01*
X143141285Y-116375571D02*
X143141285Y-114875571D01*
X143855571Y-116375571D02*
X143855571Y-114875571D01*
X144427000Y-114875571D01*
X144569857Y-114947000D01*
X144641285Y-115018428D01*
X144712714Y-115161285D01*
X144712714Y-115375571D01*
X144641285Y-115518428D01*
X144569857Y-115589857D01*
X144427000Y-115661285D01*
X143855571Y-115661285D01*
X146784142Y-114875571D02*
X147069857Y-114875571D01*
X147212714Y-114947000D01*
X147355571Y-115089857D01*
X147427000Y-115375571D01*
X147427000Y-115875571D01*
X147355571Y-116161285D01*
X147212714Y-116304142D01*
X147069857Y-116375571D01*
X146784142Y-116375571D01*
X146641285Y-116304142D01*
X146498428Y-116161285D01*
X146427000Y-115875571D01*
X146427000Y-115375571D01*
X146498428Y-115089857D01*
X146641285Y-114947000D01*
X146784142Y-114875571D01*
X148069857Y-114875571D02*
X148069857Y-116089857D01*
X148141285Y-116232714D01*
X148212714Y-116304142D01*
X148355571Y-116375571D01*
X148641285Y-116375571D01*
X148784142Y-116304142D01*
X148855571Y-116232714D01*
X148927000Y-116089857D01*
X148927000Y-114875571D01*
X149427000Y-114875571D02*
X150284142Y-114875571D01*
X149855571Y-116375571D02*
X149855571Y-114875571D01*
X78093428Y-32574571D02*
X78950571Y-32574571D01*
X78522000Y-34074571D02*
X78522000Y-32574571D01*
X79736285Y-32574571D02*
X80022000Y-32574571D01*
X80164857Y-32646000D01*
X80307714Y-32788857D01*
X80379142Y-33074571D01*
X80379142Y-33574571D01*
X80307714Y-33860285D01*
X80164857Y-34003142D01*
X80022000Y-34074571D01*
X79736285Y-34074571D01*
X79593428Y-34003142D01*
X79450571Y-33860285D01*
X79379142Y-33574571D01*
X79379142Y-33074571D01*
X79450571Y-32788857D01*
X79593428Y-32646000D01*
X79736285Y-32574571D01*
X81022000Y-34074571D02*
X81022000Y-32574571D01*
X81879142Y-34074571D01*
X81879142Y-32574571D01*
X82593428Y-33288857D02*
X83093428Y-33288857D01*
X83307714Y-34074571D02*
X82593428Y-34074571D01*
X82593428Y-32574571D01*
X83307714Y-32574571D01*
X79272000Y-35124571D02*
X79557714Y-35124571D01*
X79700571Y-35196000D01*
X79843428Y-35338857D01*
X79914857Y-35624571D01*
X79914857Y-36124571D01*
X79843428Y-36410285D01*
X79700571Y-36553142D01*
X79557714Y-36624571D01*
X79272000Y-36624571D01*
X79129142Y-36553142D01*
X78986285Y-36410285D01*
X78914857Y-36124571D01*
X78914857Y-35624571D01*
X78986285Y-35338857D01*
X79129142Y-35196000D01*
X79272000Y-35124571D01*
X80557714Y-35124571D02*
X80557714Y-36338857D01*
X80629142Y-36481714D01*
X80700571Y-36553142D01*
X80843428Y-36624571D01*
X81129142Y-36624571D01*
X81272000Y-36553142D01*
X81343428Y-36481714D01*
X81414857Y-36338857D01*
X81414857Y-35124571D01*
X81914857Y-35124571D02*
X82772000Y-35124571D01*
X82343428Y-36624571D02*
X82343428Y-35124571D01*
X157889142Y-34841571D02*
X157889142Y-33341571D01*
X157889142Y-34055857D02*
X158746285Y-34055857D01*
X158746285Y-34841571D02*
X158746285Y-33341571D01*
X159460571Y-34841571D02*
X159460571Y-33341571D01*
X160032000Y-33341571D01*
X160174857Y-33413000D01*
X160246285Y-33484428D01*
X160317714Y-33627285D01*
X160317714Y-33841571D01*
X160246285Y-33984428D01*
X160174857Y-34055857D01*
X160032000Y-34127285D01*
X159460571Y-34127285D01*
X162103428Y-34841571D02*
X162103428Y-33341571D01*
X162817714Y-34841571D02*
X162817714Y-33341571D01*
X163674857Y-34841571D01*
X163674857Y-33341571D01*
D11*
%TO.C,G\u002A\u002A\u002A*%
G36*
X159470324Y-76877990D02*
G01*
X159444069Y-77010698D01*
X159304118Y-77273613D01*
X159205789Y-77426104D01*
X158967318Y-77806107D01*
X158891789Y-78015704D01*
X158975953Y-78076574D01*
X159112696Y-78047309D01*
X159275987Y-78048695D01*
X159415370Y-78203926D01*
X159572570Y-78559504D01*
X159572799Y-78560102D01*
X159795761Y-79021373D01*
X160081150Y-79462284D01*
X160173038Y-79575753D01*
X160424457Y-79927819D01*
X160548387Y-80314431D01*
X160584697Y-80673651D01*
X160637956Y-81128723D01*
X160733838Y-81524433D01*
X160852539Y-81828289D01*
X160974256Y-82007798D01*
X161079188Y-82030467D01*
X161147530Y-81863805D01*
X161163000Y-81622532D01*
X161217995Y-81319038D01*
X161364726Y-80870569D01*
X161575814Y-80356481D01*
X161668094Y-80158592D01*
X161939347Y-79626026D01*
X162170150Y-79262377D01*
X162413722Y-79000462D01*
X162723277Y-78773098D01*
X162808033Y-78719479D01*
X163198102Y-78443227D01*
X163352928Y-78247155D01*
X163271475Y-78134145D01*
X163028754Y-78105474D01*
X162660648Y-78200853D01*
X162140905Y-78480752D01*
X161483713Y-78937288D01*
X161353500Y-79036395D01*
X161085662Y-79233315D01*
X161001067Y-79268083D01*
X161090493Y-79144301D01*
X161097226Y-79136488D01*
X161592505Y-78657932D01*
X162142494Y-78278801D01*
X162678208Y-78040171D01*
X163042878Y-77978000D01*
X163556251Y-78013153D01*
X163868679Y-78113582D01*
X163957000Y-78245587D01*
X163853433Y-78345162D01*
X163758897Y-78359000D01*
X163573997Y-78441739D01*
X163272971Y-78659568D01*
X162918223Y-78966898D01*
X162888457Y-78994869D01*
X162362657Y-79587495D01*
X161899179Y-80286597D01*
X161543545Y-81011204D01*
X161341281Y-81680347D01*
X161326761Y-81772576D01*
X161242514Y-82186992D01*
X161127524Y-82355960D01*
X160971243Y-82287225D01*
X160846682Y-82125129D01*
X160584257Y-81568861D01*
X160426913Y-80918669D01*
X160401000Y-80570271D01*
X160320509Y-80197925D01*
X160161330Y-79959468D01*
X159983635Y-79730763D01*
X159763432Y-79355006D01*
X159582708Y-78987285D01*
X159403111Y-78602174D01*
X159263290Y-78330066D01*
X159195645Y-78232000D01*
X159054772Y-78272112D01*
X158821767Y-78355856D01*
X158575627Y-78417691D01*
X158496523Y-78337493D01*
X158496000Y-78322411D01*
X158558678Y-78145479D01*
X158718006Y-77857662D01*
X158930927Y-77522795D01*
X159154382Y-77204710D01*
X159345312Y-76967241D01*
X159460659Y-76874222D01*
X159470324Y-76877990D01*
G37*
X159470324Y-76877990D02*
X159444069Y-77010698D01*
X159304118Y-77273613D01*
X159205789Y-77426104D01*
X158967318Y-77806107D01*
X158891789Y-78015704D01*
X158975953Y-78076574D01*
X159112696Y-78047309D01*
X159275987Y-78048695D01*
X159415370Y-78203926D01*
X159572570Y-78559504D01*
X159572799Y-78560102D01*
X159795761Y-79021373D01*
X160081150Y-79462284D01*
X160173038Y-79575753D01*
X160424457Y-79927819D01*
X160548387Y-80314431D01*
X160584697Y-80673651D01*
X160637956Y-81128723D01*
X160733838Y-81524433D01*
X160852539Y-81828289D01*
X160974256Y-82007798D01*
X161079188Y-82030467D01*
X161147530Y-81863805D01*
X161163000Y-81622532D01*
X161217995Y-81319038D01*
X161364726Y-80870569D01*
X161575814Y-80356481D01*
X161668094Y-80158592D01*
X161939347Y-79626026D01*
X162170150Y-79262377D01*
X162413722Y-79000462D01*
X162723277Y-78773098D01*
X162808033Y-78719479D01*
X163198102Y-78443227D01*
X163352928Y-78247155D01*
X163271475Y-78134145D01*
X163028754Y-78105474D01*
X162660648Y-78200853D01*
X162140905Y-78480752D01*
X161483713Y-78937288D01*
X161353500Y-79036395D01*
X161085662Y-79233315D01*
X161001067Y-79268083D01*
X161090493Y-79144301D01*
X161097226Y-79136488D01*
X161592505Y-78657932D01*
X162142494Y-78278801D01*
X162678208Y-78040171D01*
X163042878Y-77978000D01*
X163556251Y-78013153D01*
X163868679Y-78113582D01*
X163957000Y-78245587D01*
X163853433Y-78345162D01*
X163758897Y-78359000D01*
X163573997Y-78441739D01*
X163272971Y-78659568D01*
X162918223Y-78966898D01*
X162888457Y-78994869D01*
X162362657Y-79587495D01*
X161899179Y-80286597D01*
X161543545Y-81011204D01*
X161341281Y-81680347D01*
X161326761Y-81772576D01*
X161242514Y-82186992D01*
X161127524Y-82355960D01*
X160971243Y-82287225D01*
X160846682Y-82125129D01*
X160584257Y-81568861D01*
X160426913Y-80918669D01*
X160401000Y-80570271D01*
X160320509Y-80197925D01*
X160161330Y-79959468D01*
X159983635Y-79730763D01*
X159763432Y-79355006D01*
X159582708Y-78987285D01*
X159403111Y-78602174D01*
X159263290Y-78330066D01*
X159195645Y-78232000D01*
X159054772Y-78272112D01*
X158821767Y-78355856D01*
X158575627Y-78417691D01*
X158496523Y-78337493D01*
X158496000Y-78322411D01*
X158558678Y-78145479D01*
X158718006Y-77857662D01*
X158930927Y-77522795D01*
X159154382Y-77204710D01*
X159345312Y-76967241D01*
X159460659Y-76874222D01*
X159470324Y-76877990D01*
G36*
X161116875Y-76732700D02*
G01*
X161002590Y-77028608D01*
X160976077Y-77088129D01*
X160685763Y-77875790D01*
X160566750Y-78557939D01*
X160624455Y-79101047D01*
X160642542Y-79152750D01*
X160701384Y-79423715D01*
X160619825Y-79493703D01*
X160428208Y-79343206D01*
X160399127Y-79309244D01*
X160304974Y-79033000D01*
X160303500Y-78603453D01*
X160384893Y-78099700D01*
X160539338Y-77600840D01*
X160638045Y-77383435D01*
X160862295Y-76976917D01*
X161028801Y-76722515D01*
X161119636Y-76635889D01*
X161116875Y-76732700D01*
G37*
X161116875Y-76732700D02*
X161002590Y-77028608D01*
X160976077Y-77088129D01*
X160685763Y-77875790D01*
X160566750Y-78557939D01*
X160624455Y-79101047D01*
X160642542Y-79152750D01*
X160701384Y-79423715D01*
X160619825Y-79493703D01*
X160428208Y-79343206D01*
X160399127Y-79309244D01*
X160304974Y-79033000D01*
X160303500Y-78603453D01*
X160384893Y-78099700D01*
X160539338Y-77600840D01*
X160638045Y-77383435D01*
X160862295Y-76976917D01*
X161028801Y-76722515D01*
X161119636Y-76635889D01*
X161116875Y-76732700D01*
G36*
X164724294Y-75797570D02*
G01*
X164880603Y-76037110D01*
X165020926Y-76296267D01*
X165272717Y-76742564D01*
X165551111Y-77163475D01*
X165675754Y-77324895D01*
X165853184Y-77568565D01*
X165902600Y-77709802D01*
X165879752Y-77724000D01*
X165726618Y-77630750D01*
X165506724Y-77398324D01*
X165438469Y-77311250D01*
X165197520Y-76955492D01*
X164964448Y-76555370D01*
X164771768Y-76175104D01*
X164651999Y-75878914D01*
X164637657Y-75731022D01*
X164638101Y-75730564D01*
X164724294Y-75797570D01*
G37*
X164724294Y-75797570D02*
X164880603Y-76037110D01*
X165020926Y-76296267D01*
X165272717Y-76742564D01*
X165551111Y-77163475D01*
X165675754Y-77324895D01*
X165853184Y-77568565D01*
X165902600Y-77709802D01*
X165879752Y-77724000D01*
X165726618Y-77630750D01*
X165506724Y-77398324D01*
X165438469Y-77311250D01*
X165197520Y-76955492D01*
X164964448Y-76555370D01*
X164771768Y-76175104D01*
X164651999Y-75878914D01*
X164637657Y-75731022D01*
X164638101Y-75730564D01*
X164724294Y-75797570D01*
G36*
X165290755Y-70067873D02*
G01*
X165236990Y-70212333D01*
X165178591Y-70376215D01*
X165291601Y-70415798D01*
X165454771Y-70397755D01*
X165651298Y-70376896D01*
X165648834Y-70414622D01*
X165434105Y-70534359D01*
X165354000Y-70575602D01*
X165011255Y-70821554D01*
X164872781Y-71125955D01*
X164869314Y-71152179D01*
X164799593Y-71405701D01*
X164700473Y-71501000D01*
X164630558Y-71391954D01*
X164658989Y-71104111D01*
X164693256Y-70834736D01*
X164625699Y-70783357D01*
X164605580Y-70794106D01*
X164486013Y-70981698D01*
X164465000Y-71119999D01*
X164395631Y-71366302D01*
X164319477Y-71448947D01*
X164229824Y-71442151D01*
X164252557Y-71226537D01*
X164260068Y-71195784D01*
X164302448Y-70961882D01*
X164231185Y-70923284D01*
X164096960Y-70986064D01*
X163877868Y-71213507D01*
X163807119Y-71405471D01*
X163768822Y-71537893D01*
X163674600Y-71626167D01*
X163489402Y-71671954D01*
X163178175Y-71676911D01*
X162705867Y-71642698D01*
X162037427Y-71570975D01*
X161544000Y-71512595D01*
X160603099Y-71432152D01*
X159729681Y-71418756D01*
X159258000Y-71446582D01*
X158305500Y-71540982D01*
X159321500Y-71751836D01*
X160014648Y-71898282D01*
X160493000Y-72007760D01*
X160791223Y-72091098D01*
X160943982Y-72159122D01*
X160985944Y-72222658D01*
X160970198Y-72266723D01*
X161040452Y-72336589D01*
X161326784Y-72379490D01*
X161663504Y-72390000D01*
X162067606Y-72407581D01*
X162346280Y-72453315D01*
X162433000Y-72507206D01*
X162315925Y-72557697D01*
X162000887Y-72575502D01*
X161542165Y-72557768D01*
X161512250Y-72555585D01*
X161020052Y-72527404D01*
X160710795Y-72541126D01*
X160515268Y-72608089D01*
X160364257Y-72739631D01*
X160360017Y-72744331D01*
X160213867Y-72940332D01*
X160208363Y-73121724D01*
X160330641Y-73392738D01*
X160596348Y-73813756D01*
X160944834Y-74246784D01*
X161305817Y-74612221D01*
X161593167Y-74822683D01*
X161642551Y-74807399D01*
X161535379Y-74645151D01*
X161294674Y-74368603D01*
X161209301Y-74278080D01*
X160748518Y-73763491D01*
X160442623Y-73349364D01*
X160306146Y-73057909D01*
X160327210Y-72929456D01*
X160396513Y-72950066D01*
X160400999Y-72992429D01*
X160481606Y-73179346D01*
X160689530Y-73484980D01*
X160973924Y-73847010D01*
X161283943Y-74203115D01*
X161568741Y-74490975D01*
X161729790Y-74621092D01*
X161897715Y-74715387D01*
X162057832Y-74735312D01*
X162271682Y-74664506D01*
X162600803Y-74486610D01*
X162897619Y-74310640D01*
X163307794Y-74078471D01*
X163630393Y-73921041D01*
X163808852Y-73865220D01*
X163824405Y-73870383D01*
X163788386Y-73983293D01*
X163658088Y-74087645D01*
X163012220Y-74495449D01*
X162588407Y-74792622D01*
X162386818Y-74977264D01*
X162407624Y-75047475D01*
X162650996Y-75001358D01*
X163117104Y-74837013D01*
X163608810Y-74636776D01*
X164148193Y-74414836D01*
X164660088Y-74214266D01*
X165055161Y-74069790D01*
X165137540Y-74042579D01*
X165437980Y-73926123D01*
X165526381Y-73817003D01*
X165476952Y-73718623D01*
X165278330Y-73611593D01*
X165018394Y-73666883D01*
X164706577Y-73763352D01*
X164554911Y-73770826D01*
X164593832Y-73701826D01*
X164817757Y-73584344D01*
X165086552Y-73443788D01*
X165157935Y-73309029D01*
X165095271Y-73143163D01*
X165005121Y-72876427D01*
X165007791Y-72732209D01*
X165089760Y-72729189D01*
X165228834Y-72911724D01*
X165267490Y-72982036D01*
X165645971Y-73515065D01*
X166101897Y-73809997D01*
X166629656Y-73863362D01*
X166680831Y-73856143D01*
X167136031Y-73743417D01*
X167414102Y-73594226D01*
X167495518Y-73434318D01*
X167360752Y-73289441D01*
X167163750Y-73219373D01*
X166693403Y-73006532D01*
X166658212Y-72961500D01*
X167005000Y-72961500D01*
X167068500Y-73025000D01*
X167132000Y-72961500D01*
X167068500Y-72898000D01*
X167005000Y-72961500D01*
X166658212Y-72961500D01*
X166459716Y-72707500D01*
X166624000Y-72707500D01*
X166687500Y-72771000D01*
X166751000Y-72707500D01*
X166687500Y-72644000D01*
X166624000Y-72707500D01*
X166459716Y-72707500D01*
X166425962Y-72664308D01*
X166375276Y-72390000D01*
X166497000Y-72390000D01*
X166540330Y-72513698D01*
X166553004Y-72517000D01*
X166661433Y-72428006D01*
X166687500Y-72390000D01*
X166677430Y-72272971D01*
X166631495Y-72263000D01*
X166502168Y-72355190D01*
X166497000Y-72390000D01*
X166375276Y-72390000D01*
X166370000Y-72361448D01*
X166458688Y-71996853D01*
X166550630Y-71818500D01*
X166751000Y-71818500D01*
X166814500Y-71882000D01*
X166878000Y-71818500D01*
X166814500Y-71755000D01*
X166751000Y-71818500D01*
X166550630Y-71818500D01*
X166695605Y-71537276D01*
X167037027Y-71054077D01*
X167436008Y-70621612D01*
X167656195Y-70436866D01*
X167751108Y-70427957D01*
X167767000Y-70526362D01*
X167871657Y-70700678D01*
X168084500Y-70739000D01*
X168353454Y-70698793D01*
X168412658Y-70596894D01*
X168289967Y-70461379D01*
X168013237Y-70320327D01*
X167610324Y-70201817D01*
X167536852Y-70186983D01*
X166960666Y-70202813D01*
X166400271Y-70462205D01*
X165877624Y-70954798D01*
X165857595Y-70979479D01*
X165603001Y-71273265D01*
X165403564Y-71462414D01*
X165332744Y-71501000D01*
X165226447Y-71427324D01*
X165320857Y-71211487D01*
X165611661Y-70861277D01*
X165787302Y-70680013D01*
X166398321Y-70208859D01*
X167027956Y-69987879D01*
X167659760Y-70017109D01*
X168277285Y-70296585D01*
X168724297Y-70673655D01*
X169236741Y-71141610D01*
X169742754Y-71452030D01*
X170325965Y-71642515D01*
X171070004Y-71750666D01*
X171132246Y-71756298D01*
X172148500Y-71845498D01*
X171157943Y-71863749D01*
X170466466Y-71843929D01*
X169929665Y-71734846D01*
X169455167Y-71506258D01*
X168976407Y-71149561D01*
X168598314Y-70833859D01*
X168426993Y-71253719D01*
X168321743Y-71684255D01*
X168378099Y-72155682D01*
X168382621Y-72173718D01*
X168455934Y-72525785D01*
X168480587Y-72780100D01*
X168476600Y-72817678D01*
X168478137Y-72893014D01*
X168496470Y-72867532D01*
X168618660Y-72876566D01*
X168859776Y-73013302D01*
X168951905Y-73079954D01*
X169311585Y-73292742D01*
X169783893Y-73496668D01*
X170053000Y-73585493D01*
X170357104Y-73679055D01*
X170467056Y-73728325D01*
X170370500Y-73724089D01*
X170033956Y-73677451D01*
X169564613Y-73620532D01*
X169206401Y-73580897D01*
X168759896Y-73518232D01*
X168531551Y-73441490D01*
X168485531Y-73337883D01*
X168489739Y-73325129D01*
X168485478Y-73282985D01*
X168656000Y-73282985D01*
X168758925Y-73392141D01*
X168846500Y-73406000D01*
X169015944Y-73378828D01*
X169037000Y-73356087D01*
X168937691Y-73274197D01*
X168846500Y-73233073D01*
X168682967Y-73230433D01*
X168656000Y-73282985D01*
X168485478Y-73282985D01*
X168474347Y-73172920D01*
X168415587Y-73152000D01*
X168290946Y-73049356D01*
X168275000Y-72961500D01*
X168198046Y-72792628D01*
X168132125Y-72771000D01*
X168044879Y-72661548D01*
X168055829Y-72517000D01*
X168148000Y-72517000D01*
X168194467Y-72621535D01*
X168232666Y-72601666D01*
X168247866Y-72450947D01*
X168232666Y-72432333D01*
X168157165Y-72449766D01*
X168148000Y-72517000D01*
X168055829Y-72517000D01*
X168065450Y-72390000D01*
X168084231Y-72121205D01*
X168020147Y-72009061D01*
X168017825Y-72009000D01*
X167900964Y-72108287D01*
X167894000Y-72157166D01*
X167848414Y-72248434D01*
X167820210Y-72231543D01*
X167815037Y-72076842D01*
X167886649Y-71895735D01*
X167964511Y-71708775D01*
X167879143Y-71683994D01*
X167801688Y-71706180D01*
X167705401Y-71706348D01*
X167819607Y-71574547D01*
X167894000Y-71509634D01*
X168072553Y-71335671D01*
X168097731Y-71258651D01*
X168084500Y-71258851D01*
X167854372Y-71264030D01*
X167860295Y-71192890D01*
X168075996Y-71076600D01*
X168448492Y-70917657D01*
X167981024Y-70904406D01*
X167669252Y-70925501D01*
X167589155Y-71009876D01*
X167597612Y-71027160D01*
X167589214Y-71110208D01*
X167479036Y-71085407D01*
X167331033Y-71081637D01*
X167326154Y-71265975D01*
X167315014Y-71454801D01*
X167202979Y-71457943D01*
X167070475Y-71485547D01*
X167063477Y-71605043D01*
X166990921Y-71826519D01*
X166828699Y-71972749D01*
X166684934Y-72087277D01*
X166724817Y-72131499D01*
X166862852Y-72230515D01*
X166868519Y-72294750D01*
X166872557Y-72620682D01*
X167010636Y-72759178D01*
X167112316Y-72771000D01*
X167379450Y-72866844D01*
X167631220Y-73089843D01*
X167763786Y-73343191D01*
X167767000Y-73381322D01*
X167649709Y-73588734D01*
X167335886Y-73782164D01*
X166882604Y-73933484D01*
X166513063Y-73999271D01*
X166110337Y-74058184D01*
X165917410Y-74145494D01*
X165891114Y-74312527D01*
X165988285Y-74610613D01*
X165991601Y-74619342D01*
X166120994Y-75090913D01*
X166218900Y-75692191D01*
X166274997Y-76321090D01*
X166278964Y-76875520D01*
X166247723Y-77152500D01*
X166196434Y-77378129D01*
X166163985Y-77420769D01*
X166144840Y-77258997D01*
X166133461Y-76871388D01*
X166130604Y-76699300D01*
X166094632Y-76140371D01*
X166012252Y-75548425D01*
X165898112Y-74993618D01*
X165766862Y-74546108D01*
X165633149Y-74276051D01*
X165622009Y-74263389D01*
X165468728Y-74256112D01*
X165152987Y-74322172D01*
X164744528Y-74438556D01*
X164313092Y-74582256D01*
X163928423Y-74730261D01*
X163660261Y-74859559D01*
X163576000Y-74938442D01*
X163678137Y-75061770D01*
X163934311Y-75236577D01*
X164052250Y-75302353D01*
X164303724Y-75453578D01*
X164390892Y-75546309D01*
X164363443Y-75559387D01*
X164112581Y-75501728D01*
X163800414Y-75355105D01*
X163534287Y-75177866D01*
X163425325Y-75049476D01*
X163298793Y-74991010D01*
X163070754Y-75047917D01*
X162837901Y-75176720D01*
X162696928Y-75333944D01*
X162687000Y-75381450D01*
X162579752Y-75494012D01*
X162381686Y-75519815D01*
X162172232Y-75473402D01*
X162135181Y-75406250D01*
X162120802Y-75318167D01*
X161955123Y-75327312D01*
X161715622Y-75420564D01*
X161585686Y-75499296D01*
X161361612Y-75712780D01*
X161085978Y-76050215D01*
X160933266Y-76266706D01*
X160710542Y-76561213D01*
X160536903Y-76715294D01*
X160467307Y-76712543D01*
X160482833Y-76512952D01*
X160666551Y-76195236D01*
X160989875Y-75801872D01*
X161274352Y-75513362D01*
X161662914Y-75144224D01*
X161646490Y-75126666D01*
X162104804Y-75126666D01*
X162116399Y-75185454D01*
X162252233Y-75290733D01*
X162397801Y-75308400D01*
X162433000Y-75261087D01*
X162333380Y-75179522D01*
X162235903Y-75135542D01*
X162104804Y-75126666D01*
X161646490Y-75126666D01*
X160904957Y-74333965D01*
X160563873Y-73956173D01*
X160302413Y-73641500D01*
X160160947Y-73439616D01*
X160147000Y-73401353D01*
X160049303Y-73283589D01*
X160013011Y-73279000D01*
X159853068Y-73396978D01*
X159671008Y-73720184D01*
X159481514Y-74202527D01*
X159299270Y-74797915D01*
X159138961Y-75460257D01*
X159015270Y-76143461D01*
X158961061Y-76581000D01*
X158934772Y-76777076D01*
X158915110Y-76736197D01*
X158899494Y-76450439D01*
X158897324Y-76385432D01*
X158967144Y-75511985D01*
X159214196Y-74554552D01*
X159618063Y-73588679D01*
X159691624Y-73446388D01*
X159880135Y-73071197D01*
X159988300Y-72814198D01*
X159996189Y-72723791D01*
X159987638Y-72727500D01*
X159906719Y-72708245D01*
X159918793Y-72629927D01*
X160077898Y-72483679D01*
X160261235Y-72438683D01*
X160543421Y-72374724D01*
X160669306Y-72299493D01*
X160613654Y-72220719D01*
X160312121Y-72125292D01*
X159772134Y-72015254D01*
X159422590Y-71956596D01*
X158836765Y-71860308D01*
X158325089Y-71770862D01*
X157951635Y-71699767D01*
X157799585Y-71665063D01*
X157634274Y-71603457D01*
X157690333Y-71542707D01*
X157842686Y-71482920D01*
X158306722Y-71375391D01*
X158966068Y-71309626D01*
X159765661Y-71284626D01*
X160650435Y-71299395D01*
X161565328Y-71352933D01*
X162455274Y-71444244D01*
X163265209Y-71572330D01*
X163314618Y-71582073D01*
X163584399Y-71613329D01*
X163686722Y-71526331D01*
X163698960Y-71358125D01*
X163684471Y-71148559D01*
X163612689Y-71171043D01*
X163508460Y-71303023D01*
X163369063Y-71472409D01*
X163325410Y-71433133D01*
X163322000Y-71287148D01*
X163348275Y-70936984D01*
X163413372Y-70585983D01*
X163496700Y-70321882D01*
X163569879Y-70231000D01*
X163619078Y-70341133D01*
X163620002Y-70609698D01*
X163616825Y-70643749D01*
X163574641Y-71056500D01*
X164082725Y-70040500D01*
X164007315Y-70464433D01*
X163969481Y-70742353D01*
X164018531Y-70821442D01*
X164188122Y-70751230D01*
X164198452Y-70745714D01*
X164406853Y-70566636D01*
X164465000Y-70424526D01*
X164557636Y-70201465D01*
X164612005Y-70155135D01*
X164708080Y-70159295D01*
X164687395Y-70338140D01*
X164674046Y-70561826D01*
X164767255Y-70594771D01*
X164914659Y-70444375D01*
X164996108Y-70294499D01*
X165138246Y-70061312D01*
X165251853Y-69976999D01*
X165290755Y-70067873D01*
G37*
X165290755Y-70067873D02*
X165236990Y-70212333D01*
X165178591Y-70376215D01*
X165291601Y-70415798D01*
X165454771Y-70397755D01*
X165651298Y-70376896D01*
X165648834Y-70414622D01*
X165434105Y-70534359D01*
X165354000Y-70575602D01*
X165011255Y-70821554D01*
X164872781Y-71125955D01*
X164869314Y-71152179D01*
X164799593Y-71405701D01*
X164700473Y-71501000D01*
X164630558Y-71391954D01*
X164658989Y-71104111D01*
X164693256Y-70834736D01*
X164625699Y-70783357D01*
X164605580Y-70794106D01*
X164486013Y-70981698D01*
X164465000Y-71119999D01*
X164395631Y-71366302D01*
X164319477Y-71448947D01*
X164229824Y-71442151D01*
X164252557Y-71226537D01*
X164260068Y-71195784D01*
X164302448Y-70961882D01*
X164231185Y-70923284D01*
X164096960Y-70986064D01*
X163877868Y-71213507D01*
X163807119Y-71405471D01*
X163768822Y-71537893D01*
X163674600Y-71626167D01*
X163489402Y-71671954D01*
X163178175Y-71676911D01*
X162705867Y-71642698D01*
X162037427Y-71570975D01*
X161544000Y-71512595D01*
X160603099Y-71432152D01*
X159729681Y-71418756D01*
X159258000Y-71446582D01*
X158305500Y-71540982D01*
X159321500Y-71751836D01*
X160014648Y-71898282D01*
X160493000Y-72007760D01*
X160791223Y-72091098D01*
X160943982Y-72159122D01*
X160985944Y-72222658D01*
X160970198Y-72266723D01*
X161040452Y-72336589D01*
X161326784Y-72379490D01*
X161663504Y-72390000D01*
X162067606Y-72407581D01*
X162346280Y-72453315D01*
X162433000Y-72507206D01*
X162315925Y-72557697D01*
X162000887Y-72575502D01*
X161542165Y-72557768D01*
X161512250Y-72555585D01*
X161020052Y-72527404D01*
X160710795Y-72541126D01*
X160515268Y-72608089D01*
X160364257Y-72739631D01*
X160360017Y-72744331D01*
X160213867Y-72940332D01*
X160208363Y-73121724D01*
X160330641Y-73392738D01*
X160596348Y-73813756D01*
X160944834Y-74246784D01*
X161305817Y-74612221D01*
X161593167Y-74822683D01*
X161642551Y-74807399D01*
X161535379Y-74645151D01*
X161294674Y-74368603D01*
X161209301Y-74278080D01*
X160748518Y-73763491D01*
X160442623Y-73349364D01*
X160306146Y-73057909D01*
X160327210Y-72929456D01*
X160396513Y-72950066D01*
X160400999Y-72992429D01*
X160481606Y-73179346D01*
X160689530Y-73484980D01*
X160973924Y-73847010D01*
X161283943Y-74203115D01*
X161568741Y-74490975D01*
X161729790Y-74621092D01*
X161897715Y-74715387D01*
X162057832Y-74735312D01*
X162271682Y-74664506D01*
X162600803Y-74486610D01*
X162897619Y-74310640D01*
X163307794Y-74078471D01*
X163630393Y-73921041D01*
X163808852Y-73865220D01*
X163824405Y-73870383D01*
X163788386Y-73983293D01*
X163658088Y-74087645D01*
X163012220Y-74495449D01*
X162588407Y-74792622D01*
X162386818Y-74977264D01*
X162407624Y-75047475D01*
X162650996Y-75001358D01*
X163117104Y-74837013D01*
X163608810Y-74636776D01*
X164148193Y-74414836D01*
X164660088Y-74214266D01*
X165055161Y-74069790D01*
X165137540Y-74042579D01*
X165437980Y-73926123D01*
X165526381Y-73817003D01*
X165476952Y-73718623D01*
X165278330Y-73611593D01*
X165018394Y-73666883D01*
X164706577Y-73763352D01*
X164554911Y-73770826D01*
X164593832Y-73701826D01*
X164817757Y-73584344D01*
X165086552Y-73443788D01*
X165157935Y-73309029D01*
X165095271Y-73143163D01*
X165005121Y-72876427D01*
X165007791Y-72732209D01*
X165089760Y-72729189D01*
X165228834Y-72911724D01*
X165267490Y-72982036D01*
X165645971Y-73515065D01*
X166101897Y-73809997D01*
X166629656Y-73863362D01*
X166680831Y-73856143D01*
X167136031Y-73743417D01*
X167414102Y-73594226D01*
X167495518Y-73434318D01*
X167360752Y-73289441D01*
X167163750Y-73219373D01*
X166693403Y-73006532D01*
X166658212Y-72961500D01*
X167005000Y-72961500D01*
X167068500Y-73025000D01*
X167132000Y-72961500D01*
X167068500Y-72898000D01*
X167005000Y-72961500D01*
X166658212Y-72961500D01*
X166459716Y-72707500D01*
X166624000Y-72707500D01*
X166687500Y-72771000D01*
X166751000Y-72707500D01*
X166687500Y-72644000D01*
X166624000Y-72707500D01*
X166459716Y-72707500D01*
X166425962Y-72664308D01*
X166375276Y-72390000D01*
X166497000Y-72390000D01*
X166540330Y-72513698D01*
X166553004Y-72517000D01*
X166661433Y-72428006D01*
X166687500Y-72390000D01*
X166677430Y-72272971D01*
X166631495Y-72263000D01*
X166502168Y-72355190D01*
X166497000Y-72390000D01*
X166375276Y-72390000D01*
X166370000Y-72361448D01*
X166458688Y-71996853D01*
X166550630Y-71818500D01*
X166751000Y-71818500D01*
X166814500Y-71882000D01*
X166878000Y-71818500D01*
X166814500Y-71755000D01*
X166751000Y-71818500D01*
X166550630Y-71818500D01*
X166695605Y-71537276D01*
X167037027Y-71054077D01*
X167436008Y-70621612D01*
X167656195Y-70436866D01*
X167751108Y-70427957D01*
X167767000Y-70526362D01*
X167871657Y-70700678D01*
X168084500Y-70739000D01*
X168353454Y-70698793D01*
X168412658Y-70596894D01*
X168289967Y-70461379D01*
X168013237Y-70320327D01*
X167610324Y-70201817D01*
X167536852Y-70186983D01*
X166960666Y-70202813D01*
X166400271Y-70462205D01*
X165877624Y-70954798D01*
X165857595Y-70979479D01*
X165603001Y-71273265D01*
X165403564Y-71462414D01*
X165332744Y-71501000D01*
X165226447Y-71427324D01*
X165320857Y-71211487D01*
X165611661Y-70861277D01*
X165787302Y-70680013D01*
X166398321Y-70208859D01*
X167027956Y-69987879D01*
X167659760Y-70017109D01*
X168277285Y-70296585D01*
X168724297Y-70673655D01*
X169236741Y-71141610D01*
X169742754Y-71452030D01*
X170325965Y-71642515D01*
X171070004Y-71750666D01*
X171132246Y-71756298D01*
X172148500Y-71845498D01*
X171157943Y-71863749D01*
X170466466Y-71843929D01*
X169929665Y-71734846D01*
X169455167Y-71506258D01*
X168976407Y-71149561D01*
X168598314Y-70833859D01*
X168426993Y-71253719D01*
X168321743Y-71684255D01*
X168378099Y-72155682D01*
X168382621Y-72173718D01*
X168455934Y-72525785D01*
X168480587Y-72780100D01*
X168476600Y-72817678D01*
X168478137Y-72893014D01*
X168496470Y-72867532D01*
X168618660Y-72876566D01*
X168859776Y-73013302D01*
X168951905Y-73079954D01*
X169311585Y-73292742D01*
X169783893Y-73496668D01*
X170053000Y-73585493D01*
X170357104Y-73679055D01*
X170467056Y-73728325D01*
X170370500Y-73724089D01*
X170033956Y-73677451D01*
X169564613Y-73620532D01*
X169206401Y-73580897D01*
X168759896Y-73518232D01*
X168531551Y-73441490D01*
X168485531Y-73337883D01*
X168489739Y-73325129D01*
X168485478Y-73282985D01*
X168656000Y-73282985D01*
X168758925Y-73392141D01*
X168846500Y-73406000D01*
X169015944Y-73378828D01*
X169037000Y-73356087D01*
X168937691Y-73274197D01*
X168846500Y-73233073D01*
X168682967Y-73230433D01*
X168656000Y-73282985D01*
X168485478Y-73282985D01*
X168474347Y-73172920D01*
X168415587Y-73152000D01*
X168290946Y-73049356D01*
X168275000Y-72961500D01*
X168198046Y-72792628D01*
X168132125Y-72771000D01*
X168044879Y-72661548D01*
X168055829Y-72517000D01*
X168148000Y-72517000D01*
X168194467Y-72621535D01*
X168232666Y-72601666D01*
X168247866Y-72450947D01*
X168232666Y-72432333D01*
X168157165Y-72449766D01*
X168148000Y-72517000D01*
X168055829Y-72517000D01*
X168065450Y-72390000D01*
X168084231Y-72121205D01*
X168020147Y-72009061D01*
X168017825Y-72009000D01*
X167900964Y-72108287D01*
X167894000Y-72157166D01*
X167848414Y-72248434D01*
X167820210Y-72231543D01*
X167815037Y-72076842D01*
X167886649Y-71895735D01*
X167964511Y-71708775D01*
X167879143Y-71683994D01*
X167801688Y-71706180D01*
X167705401Y-71706348D01*
X167819607Y-71574547D01*
X167894000Y-71509634D01*
X168072553Y-71335671D01*
X168097731Y-71258651D01*
X168084500Y-71258851D01*
X167854372Y-71264030D01*
X167860295Y-71192890D01*
X168075996Y-71076600D01*
X168448492Y-70917657D01*
X167981024Y-70904406D01*
X167669252Y-70925501D01*
X167589155Y-71009876D01*
X167597612Y-71027160D01*
X167589214Y-71110208D01*
X167479036Y-71085407D01*
X167331033Y-71081637D01*
X167326154Y-71265975D01*
X167315014Y-71454801D01*
X167202979Y-71457943D01*
X167070475Y-71485547D01*
X167063477Y-71605043D01*
X166990921Y-71826519D01*
X166828699Y-71972749D01*
X166684934Y-72087277D01*
X166724817Y-72131499D01*
X166862852Y-72230515D01*
X166868519Y-72294750D01*
X166872557Y-72620682D01*
X167010636Y-72759178D01*
X167112316Y-72771000D01*
X167379450Y-72866844D01*
X167631220Y-73089843D01*
X167763786Y-73343191D01*
X167767000Y-73381322D01*
X167649709Y-73588734D01*
X167335886Y-73782164D01*
X166882604Y-73933484D01*
X166513063Y-73999271D01*
X166110337Y-74058184D01*
X165917410Y-74145494D01*
X165891114Y-74312527D01*
X165988285Y-74610613D01*
X165991601Y-74619342D01*
X166120994Y-75090913D01*
X166218900Y-75692191D01*
X166274997Y-76321090D01*
X166278964Y-76875520D01*
X166247723Y-77152500D01*
X166196434Y-77378129D01*
X166163985Y-77420769D01*
X166144840Y-77258997D01*
X166133461Y-76871388D01*
X166130604Y-76699300D01*
X166094632Y-76140371D01*
X166012252Y-75548425D01*
X165898112Y-74993618D01*
X165766862Y-74546108D01*
X165633149Y-74276051D01*
X165622009Y-74263389D01*
X165468728Y-74256112D01*
X165152987Y-74322172D01*
X164744528Y-74438556D01*
X164313092Y-74582256D01*
X163928423Y-74730261D01*
X163660261Y-74859559D01*
X163576000Y-74938442D01*
X163678137Y-75061770D01*
X163934311Y-75236577D01*
X164052250Y-75302353D01*
X164303724Y-75453578D01*
X164390892Y-75546309D01*
X164363443Y-75559387D01*
X164112581Y-75501728D01*
X163800414Y-75355105D01*
X163534287Y-75177866D01*
X163425325Y-75049476D01*
X163298793Y-74991010D01*
X163070754Y-75047917D01*
X162837901Y-75176720D01*
X162696928Y-75333944D01*
X162687000Y-75381450D01*
X162579752Y-75494012D01*
X162381686Y-75519815D01*
X162172232Y-75473402D01*
X162135181Y-75406250D01*
X162120802Y-75318167D01*
X161955123Y-75327312D01*
X161715622Y-75420564D01*
X161585686Y-75499296D01*
X161361612Y-75712780D01*
X161085978Y-76050215D01*
X160933266Y-76266706D01*
X160710542Y-76561213D01*
X160536903Y-76715294D01*
X160467307Y-76712543D01*
X160482833Y-76512952D01*
X160666551Y-76195236D01*
X160989875Y-75801872D01*
X161274352Y-75513362D01*
X161662914Y-75144224D01*
X161646490Y-75126666D01*
X162104804Y-75126666D01*
X162116399Y-75185454D01*
X162252233Y-75290733D01*
X162397801Y-75308400D01*
X162433000Y-75261087D01*
X162333380Y-75179522D01*
X162235903Y-75135542D01*
X162104804Y-75126666D01*
X161646490Y-75126666D01*
X160904957Y-74333965D01*
X160563873Y-73956173D01*
X160302413Y-73641500D01*
X160160947Y-73439616D01*
X160147000Y-73401353D01*
X160049303Y-73283589D01*
X160013011Y-73279000D01*
X159853068Y-73396978D01*
X159671008Y-73720184D01*
X159481514Y-74202527D01*
X159299270Y-74797915D01*
X159138961Y-75460257D01*
X159015270Y-76143461D01*
X158961061Y-76581000D01*
X158934772Y-76777076D01*
X158915110Y-76736197D01*
X158899494Y-76450439D01*
X158897324Y-76385432D01*
X158967144Y-75511985D01*
X159214196Y-74554552D01*
X159618063Y-73588679D01*
X159691624Y-73446388D01*
X159880135Y-73071197D01*
X159988300Y-72814198D01*
X159996189Y-72723791D01*
X159987638Y-72727500D01*
X159906719Y-72708245D01*
X159918793Y-72629927D01*
X160077898Y-72483679D01*
X160261235Y-72438683D01*
X160543421Y-72374724D01*
X160669306Y-72299493D01*
X160613654Y-72220719D01*
X160312121Y-72125292D01*
X159772134Y-72015254D01*
X159422590Y-71956596D01*
X158836765Y-71860308D01*
X158325089Y-71770862D01*
X157951635Y-71699767D01*
X157799585Y-71665063D01*
X157634274Y-71603457D01*
X157690333Y-71542707D01*
X157842686Y-71482920D01*
X158306722Y-71375391D01*
X158966068Y-71309626D01*
X159765661Y-71284626D01*
X160650435Y-71299395D01*
X161565328Y-71352933D01*
X162455274Y-71444244D01*
X163265209Y-71572330D01*
X163314618Y-71582073D01*
X163584399Y-71613329D01*
X163686722Y-71526331D01*
X163698960Y-71358125D01*
X163684471Y-71148559D01*
X163612689Y-71171043D01*
X163508460Y-71303023D01*
X163369063Y-71472409D01*
X163325410Y-71433133D01*
X163322000Y-71287148D01*
X163348275Y-70936984D01*
X163413372Y-70585983D01*
X163496700Y-70321882D01*
X163569879Y-70231000D01*
X163619078Y-70341133D01*
X163620002Y-70609698D01*
X163616825Y-70643749D01*
X163574641Y-71056500D01*
X164082725Y-70040500D01*
X164007315Y-70464433D01*
X163969481Y-70742353D01*
X164018531Y-70821442D01*
X164188122Y-70751230D01*
X164198452Y-70745714D01*
X164406853Y-70566636D01*
X164465000Y-70424526D01*
X164557636Y-70201465D01*
X164612005Y-70155135D01*
X164708080Y-70159295D01*
X164687395Y-70338140D01*
X164674046Y-70561826D01*
X164767255Y-70594771D01*
X164914659Y-70444375D01*
X164996108Y-70294499D01*
X165138246Y-70061312D01*
X165251853Y-69976999D01*
X165290755Y-70067873D01*
G36*
X161798000Y-75882500D02*
G01*
X161734500Y-75946000D01*
X161671000Y-75882500D01*
X161734500Y-75819000D01*
X161798000Y-75882500D01*
G37*
X161798000Y-75882500D02*
X161734500Y-75946000D01*
X161671000Y-75882500D01*
X161734500Y-75819000D01*
X161798000Y-75882500D01*
G36*
X175247877Y-69244285D02*
G01*
X175369972Y-69352944D01*
X175487531Y-69572183D01*
X175612474Y-69933209D01*
X175756720Y-70467227D01*
X175932186Y-71205443D01*
X176023731Y-71609121D01*
X176171688Y-72246902D01*
X176309866Y-72805339D01*
X176424734Y-73232271D01*
X176502759Y-73475535D01*
X176514442Y-73500689D01*
X176595276Y-73521282D01*
X176710914Y-73343052D01*
X176865932Y-72954214D01*
X177064909Y-72342980D01*
X177312423Y-71497563D01*
X177365032Y-71310500D01*
X177524370Y-70806051D01*
X177706808Y-70321363D01*
X177818683Y-70072249D01*
X178021699Y-69734449D01*
X178193029Y-69602656D01*
X178339043Y-69686359D01*
X178466111Y-69995049D01*
X178580604Y-70538217D01*
X178688891Y-71325353D01*
X178695012Y-71377799D01*
X178785196Y-72124329D01*
X178863059Y-72627064D01*
X178942310Y-72894873D01*
X179036659Y-72936624D01*
X179159815Y-72761184D01*
X179325487Y-72377421D01*
X179506685Y-71902833D01*
X179798329Y-71168309D01*
X180037004Y-70674868D01*
X180232428Y-70417451D01*
X180394318Y-70390997D01*
X180532390Y-70590445D01*
X180656363Y-71010737D01*
X180711107Y-71275657D01*
X180839594Y-71913287D01*
X180946476Y-72315780D01*
X181047330Y-72499259D01*
X181157733Y-72479850D01*
X181293261Y-72273679D01*
X181419500Y-72009000D01*
X181580907Y-71700484D01*
X181718327Y-71520215D01*
X181756288Y-71501000D01*
X181844709Y-71535542D01*
X181838271Y-71670157D01*
X181726710Y-71951327D01*
X181595325Y-72229813D01*
X181396447Y-72579961D01*
X181216400Y-72733095D01*
X181055575Y-72746160D01*
X180889075Y-72675313D01*
X180765542Y-72481946D01*
X180654237Y-72110008D01*
X180616486Y-71945500D01*
X180480584Y-71352847D01*
X180373720Y-71003433D01*
X180273471Y-70891765D01*
X180157420Y-71012347D01*
X180003144Y-71359687D01*
X179851705Y-71758093D01*
X179546639Y-72543442D01*
X179297622Y-73096047D01*
X179095115Y-73412923D01*
X178929575Y-73491085D01*
X178791462Y-73327546D01*
X178671235Y-72919322D01*
X178559353Y-72263427D01*
X178446276Y-71356875D01*
X178441766Y-71316902D01*
X178375561Y-70777411D01*
X178311322Y-70338624D01*
X178258026Y-70057828D01*
X178233413Y-69987080D01*
X178154119Y-69981075D01*
X178054725Y-70124500D01*
X177925237Y-70441790D01*
X177755659Y-70957380D01*
X177539475Y-71683683D01*
X177359757Y-72290267D01*
X177187419Y-72846443D01*
X177044313Y-73283076D01*
X176964993Y-73501250D01*
X176768768Y-73812313D01*
X176546629Y-73904386D01*
X176339469Y-73765864D01*
X176293694Y-73691750D01*
X176217829Y-73477297D01*
X176108839Y-73078926D01*
X175983747Y-72561714D01*
X175903339Y-72199500D01*
X175676108Y-71183556D01*
X175479346Y-70397657D01*
X175314708Y-69847486D01*
X175183847Y-69538726D01*
X175109123Y-69469000D01*
X174996606Y-69575679D01*
X174836091Y-69848913D01*
X174731286Y-70072250D01*
X174403129Y-70826896D01*
X174157000Y-71377070D01*
X173977610Y-71752918D01*
X173849673Y-71984586D01*
X173757899Y-72102220D01*
X173687003Y-72135967D01*
X173684725Y-72136000D01*
X173522719Y-72214540D01*
X173235714Y-72420495D01*
X172885692Y-72709367D01*
X172883939Y-72710900D01*
X172221417Y-73216331D01*
X171611514Y-73535636D01*
X171087821Y-73651669D01*
X171041329Y-73651428D01*
X170985608Y-73619540D01*
X171142672Y-73546025D01*
X171381940Y-73473657D01*
X171874699Y-73267325D01*
X172320365Y-72951707D01*
X172659849Y-72582023D01*
X172834063Y-72213493D01*
X172845265Y-72106115D01*
X172778981Y-71591500D01*
X172753020Y-71549301D01*
X172941878Y-71549301D01*
X172950465Y-71862989D01*
X172953044Y-71890502D01*
X173005114Y-72187572D01*
X173077748Y-72326798D01*
X173102349Y-72325666D01*
X173173435Y-72163203D01*
X173170804Y-72040623D01*
X173166309Y-71926654D01*
X173192039Y-71977250D01*
X173259915Y-72112959D01*
X173390253Y-72111399D01*
X173535112Y-72058912D01*
X173677416Y-71895538D01*
X173737333Y-71629201D01*
X173695917Y-71391603D01*
X173640026Y-71329675D01*
X173453784Y-71306095D01*
X173224798Y-71331389D01*
X173020160Y-71399183D01*
X172941878Y-71549301D01*
X172753020Y-71549301D01*
X172591126Y-71286154D01*
X172421304Y-71207931D01*
X172390037Y-71178394D01*
X172572984Y-71152860D01*
X172916850Y-71137295D01*
X173388279Y-71152541D01*
X173726059Y-71214302D01*
X173837600Y-71272400D01*
X173963091Y-71358806D01*
X173990000Y-71264076D01*
X174040620Y-71079596D01*
X174175062Y-70732323D01*
X174367198Y-70288433D01*
X174426236Y-70159176D01*
X174679532Y-69650509D01*
X174879060Y-69349992D01*
X175049102Y-69224063D01*
X175109328Y-69215000D01*
X175247877Y-69244285D01*
G37*
X175247877Y-69244285D02*
X175369972Y-69352944D01*
X175487531Y-69572183D01*
X175612474Y-69933209D01*
X175756720Y-70467227D01*
X175932186Y-71205443D01*
X176023731Y-71609121D01*
X176171688Y-72246902D01*
X176309866Y-72805339D01*
X176424734Y-73232271D01*
X176502759Y-73475535D01*
X176514442Y-73500689D01*
X176595276Y-73521282D01*
X176710914Y-73343052D01*
X176865932Y-72954214D01*
X177064909Y-72342980D01*
X177312423Y-71497563D01*
X177365032Y-71310500D01*
X177524370Y-70806051D01*
X177706808Y-70321363D01*
X177818683Y-70072249D01*
X178021699Y-69734449D01*
X178193029Y-69602656D01*
X178339043Y-69686359D01*
X178466111Y-69995049D01*
X178580604Y-70538217D01*
X178688891Y-71325353D01*
X178695012Y-71377799D01*
X178785196Y-72124329D01*
X178863059Y-72627064D01*
X178942310Y-72894873D01*
X179036659Y-72936624D01*
X179159815Y-72761184D01*
X179325487Y-72377421D01*
X179506685Y-71902833D01*
X179798329Y-71168309D01*
X180037004Y-70674868D01*
X180232428Y-70417451D01*
X180394318Y-70390997D01*
X180532390Y-70590445D01*
X180656363Y-71010737D01*
X180711107Y-71275657D01*
X180839594Y-71913287D01*
X180946476Y-72315780D01*
X181047330Y-72499259D01*
X181157733Y-72479850D01*
X181293261Y-72273679D01*
X181419500Y-72009000D01*
X181580907Y-71700484D01*
X181718327Y-71520215D01*
X181756288Y-71501000D01*
X181844709Y-71535542D01*
X181838271Y-71670157D01*
X181726710Y-71951327D01*
X181595325Y-72229813D01*
X181396447Y-72579961D01*
X181216400Y-72733095D01*
X181055575Y-72746160D01*
X180889075Y-72675313D01*
X180765542Y-72481946D01*
X180654237Y-72110008D01*
X180616486Y-71945500D01*
X180480584Y-71352847D01*
X180373720Y-71003433D01*
X180273471Y-70891765D01*
X180157420Y-71012347D01*
X180003144Y-71359687D01*
X179851705Y-71758093D01*
X179546639Y-72543442D01*
X179297622Y-73096047D01*
X179095115Y-73412923D01*
X178929575Y-73491085D01*
X178791462Y-73327546D01*
X178671235Y-72919322D01*
X178559353Y-72263427D01*
X178446276Y-71356875D01*
X178441766Y-71316902D01*
X178375561Y-70777411D01*
X178311322Y-70338624D01*
X178258026Y-70057828D01*
X178233413Y-69987080D01*
X178154119Y-69981075D01*
X178054725Y-70124500D01*
X177925237Y-70441790D01*
X177755659Y-70957380D01*
X177539475Y-71683683D01*
X177359757Y-72290267D01*
X177187419Y-72846443D01*
X177044313Y-73283076D01*
X176964993Y-73501250D01*
X176768768Y-73812313D01*
X176546629Y-73904386D01*
X176339469Y-73765864D01*
X176293694Y-73691750D01*
X176217829Y-73477297D01*
X176108839Y-73078926D01*
X175983747Y-72561714D01*
X175903339Y-72199500D01*
X175676108Y-71183556D01*
X175479346Y-70397657D01*
X175314708Y-69847486D01*
X175183847Y-69538726D01*
X175109123Y-69469000D01*
X174996606Y-69575679D01*
X174836091Y-69848913D01*
X174731286Y-70072250D01*
X174403129Y-70826896D01*
X174157000Y-71377070D01*
X173977610Y-71752918D01*
X173849673Y-71984586D01*
X173757899Y-72102220D01*
X173687003Y-72135967D01*
X173684725Y-72136000D01*
X173522719Y-72214540D01*
X173235714Y-72420495D01*
X172885692Y-72709367D01*
X172883939Y-72710900D01*
X172221417Y-73216331D01*
X171611514Y-73535636D01*
X171087821Y-73651669D01*
X171041329Y-73651428D01*
X170985608Y-73619540D01*
X171142672Y-73546025D01*
X171381940Y-73473657D01*
X171874699Y-73267325D01*
X172320365Y-72951707D01*
X172659849Y-72582023D01*
X172834063Y-72213493D01*
X172845265Y-72106115D01*
X172778981Y-71591500D01*
X172753020Y-71549301D01*
X172941878Y-71549301D01*
X172950465Y-71862989D01*
X172953044Y-71890502D01*
X173005114Y-72187572D01*
X173077748Y-72326798D01*
X173102349Y-72325666D01*
X173173435Y-72163203D01*
X173170804Y-72040623D01*
X173166309Y-71926654D01*
X173192039Y-71977250D01*
X173259915Y-72112959D01*
X173390253Y-72111399D01*
X173535112Y-72058912D01*
X173677416Y-71895538D01*
X173737333Y-71629201D01*
X173695917Y-71391603D01*
X173640026Y-71329675D01*
X173453784Y-71306095D01*
X173224798Y-71331389D01*
X173020160Y-71399183D01*
X172941878Y-71549301D01*
X172753020Y-71549301D01*
X172591126Y-71286154D01*
X172421304Y-71207931D01*
X172390037Y-71178394D01*
X172572984Y-71152860D01*
X172916850Y-71137295D01*
X173388279Y-71152541D01*
X173726059Y-71214302D01*
X173837600Y-71272400D01*
X173963091Y-71358806D01*
X173990000Y-71264076D01*
X174040620Y-71079596D01*
X174175062Y-70732323D01*
X174367198Y-70288433D01*
X174426236Y-70159176D01*
X174679532Y-69650509D01*
X174879060Y-69349992D01*
X175049102Y-69224063D01*
X175109328Y-69215000D01*
X175247877Y-69244285D01*
G36*
X161750630Y-67362855D02*
G01*
X162559699Y-67505971D01*
X163433087Y-67721222D01*
X164303571Y-67988536D01*
X165103929Y-68287842D01*
X165766936Y-68599067D01*
X166121629Y-68819345D01*
X166442974Y-68979276D01*
X166881272Y-69108545D01*
X167081586Y-69144566D01*
X167462725Y-69187023D01*
X167675602Y-69160431D01*
X167802560Y-69037138D01*
X167886358Y-68874326D01*
X168019043Y-68664999D01*
X168108385Y-68668083D01*
X168113157Y-68679520D01*
X168088566Y-68900927D01*
X168001256Y-69049562D01*
X167901227Y-69187642D01*
X167979294Y-69174836D01*
X168107900Y-69108792D01*
X168453170Y-68994639D01*
X168679400Y-68973659D01*
X168879062Y-68987868D01*
X168847792Y-69023965D01*
X168656000Y-69087999D01*
X168486872Y-69164199D01*
X168544337Y-69202174D01*
X168546945Y-69202340D01*
X168731014Y-69293800D01*
X169030915Y-69524738D01*
X169388629Y-69849449D01*
X169469306Y-69928915D01*
X169859917Y-70302335D01*
X170178891Y-70540709D01*
X170523986Y-70698260D01*
X170992958Y-70829206D01*
X171165861Y-70869893D01*
X171572249Y-70973636D01*
X171812488Y-71055405D01*
X171852161Y-71102361D01*
X171805501Y-71108478D01*
X170913958Y-71020448D01*
X170107861Y-70693285D01*
X169479799Y-70218159D01*
X169078509Y-69869343D01*
X168816741Y-69716558D01*
X168697190Y-69732609D01*
X168505114Y-69769189D01*
X168245288Y-69659500D01*
X168402000Y-69659500D01*
X168465500Y-69723000D01*
X168529000Y-69659500D01*
X168465500Y-69596000D01*
X168402000Y-69659500D01*
X168245288Y-69659500D01*
X168164761Y-69625505D01*
X168097197Y-69586664D01*
X167863607Y-69463046D01*
X167856451Y-69460731D01*
X168052137Y-69460731D01*
X168069509Y-69469000D01*
X168185407Y-69379594D01*
X168211500Y-69342000D01*
X168243862Y-69223268D01*
X168226490Y-69215000D01*
X168110592Y-69304405D01*
X168084500Y-69342000D01*
X168052137Y-69460731D01*
X167856451Y-69460731D01*
X167629386Y-69387280D01*
X167331979Y-69352180D01*
X166908830Y-69350560D01*
X166297382Y-69375235D01*
X166268779Y-69376635D01*
X165607848Y-69425843D01*
X164949902Y-69503128D01*
X164392927Y-69595791D01*
X164161176Y-69649796D01*
X163758915Y-69749617D01*
X163465179Y-69801698D01*
X163354900Y-69798233D01*
X163417867Y-69726789D01*
X163673133Y-69627570D01*
X164062634Y-69515642D01*
X164528305Y-69406067D01*
X165012085Y-69313911D01*
X165449250Y-69254874D01*
X165860128Y-69201618D01*
X166146940Y-69138457D01*
X166243000Y-69084706D01*
X166132218Y-68991750D01*
X165835072Y-68835579D01*
X165404361Y-68638516D01*
X164892884Y-68422883D01*
X164353441Y-68211005D01*
X163838830Y-68025205D01*
X163432458Y-67896419D01*
X163056184Y-67806850D01*
X162572082Y-67715630D01*
X162043127Y-67631459D01*
X161532294Y-67563039D01*
X161102557Y-67519070D01*
X160816890Y-67508253D01*
X160737300Y-67524032D01*
X160802642Y-67625247D01*
X161010385Y-67864986D01*
X161323678Y-68201812D01*
X161534892Y-68420885D01*
X161950134Y-68852339D01*
X162338610Y-69266206D01*
X162636684Y-69594337D01*
X162714541Y-69684179D01*
X163057360Y-70089859D01*
X162647763Y-70343004D01*
X162273882Y-70613179D01*
X161939269Y-70914354D01*
X161932445Y-70921574D01*
X161691224Y-71139446D01*
X161505240Y-71242291D01*
X161490112Y-71243563D01*
X161492768Y-71166950D01*
X161650349Y-70975130D01*
X161798064Y-70830813D01*
X162136029Y-70537002D01*
X162451913Y-70289692D01*
X162539090Y-70229435D01*
X162835552Y-70037371D01*
X161786432Y-68916047D01*
X161348139Y-68465557D01*
X160941130Y-68079391D01*
X160612180Y-67799968D01*
X160414709Y-67672069D01*
X160219242Y-67552077D01*
X160252259Y-67443367D01*
X160488257Y-67359888D01*
X160901735Y-67315589D01*
X161073104Y-67311944D01*
X161750630Y-67362855D01*
G37*
X161750630Y-67362855D02*
X162559699Y-67505971D01*
X163433087Y-67721222D01*
X164303571Y-67988536D01*
X165103929Y-68287842D01*
X165766936Y-68599067D01*
X166121629Y-68819345D01*
X166442974Y-68979276D01*
X166881272Y-69108545D01*
X167081586Y-69144566D01*
X167462725Y-69187023D01*
X167675602Y-69160431D01*
X167802560Y-69037138D01*
X167886358Y-68874326D01*
X168019043Y-68664999D01*
X168108385Y-68668083D01*
X168113157Y-68679520D01*
X168088566Y-68900927D01*
X168001256Y-69049562D01*
X167901227Y-69187642D01*
X167979294Y-69174836D01*
X168107900Y-69108792D01*
X168453170Y-68994639D01*
X168679400Y-68973659D01*
X168879062Y-68987868D01*
X168847792Y-69023965D01*
X168656000Y-69087999D01*
X168486872Y-69164199D01*
X168544337Y-69202174D01*
X168546945Y-69202340D01*
X168731014Y-69293800D01*
X169030915Y-69524738D01*
X169388629Y-69849449D01*
X169469306Y-69928915D01*
X169859917Y-70302335D01*
X170178891Y-70540709D01*
X170523986Y-70698260D01*
X170992958Y-70829206D01*
X171165861Y-70869893D01*
X171572249Y-70973636D01*
X171812488Y-71055405D01*
X171852161Y-71102361D01*
X171805501Y-71108478D01*
X170913958Y-71020448D01*
X170107861Y-70693285D01*
X169479799Y-70218159D01*
X169078509Y-69869343D01*
X168816741Y-69716558D01*
X168697190Y-69732609D01*
X168505114Y-69769189D01*
X168245288Y-69659500D01*
X168402000Y-69659500D01*
X168465500Y-69723000D01*
X168529000Y-69659500D01*
X168465500Y-69596000D01*
X168402000Y-69659500D01*
X168245288Y-69659500D01*
X168164761Y-69625505D01*
X168097197Y-69586664D01*
X167863607Y-69463046D01*
X167856451Y-69460731D01*
X168052137Y-69460731D01*
X168069509Y-69469000D01*
X168185407Y-69379594D01*
X168211500Y-69342000D01*
X168243862Y-69223268D01*
X168226490Y-69215000D01*
X168110592Y-69304405D01*
X168084500Y-69342000D01*
X168052137Y-69460731D01*
X167856451Y-69460731D01*
X167629386Y-69387280D01*
X167331979Y-69352180D01*
X166908830Y-69350560D01*
X166297382Y-69375235D01*
X166268779Y-69376635D01*
X165607848Y-69425843D01*
X164949902Y-69503128D01*
X164392927Y-69595791D01*
X164161176Y-69649796D01*
X163758915Y-69749617D01*
X163465179Y-69801698D01*
X163354900Y-69798233D01*
X163417867Y-69726789D01*
X163673133Y-69627570D01*
X164062634Y-69515642D01*
X164528305Y-69406067D01*
X165012085Y-69313911D01*
X165449250Y-69254874D01*
X165860128Y-69201618D01*
X166146940Y-69138457D01*
X166243000Y-69084706D01*
X166132218Y-68991750D01*
X165835072Y-68835579D01*
X165404361Y-68638516D01*
X164892884Y-68422883D01*
X164353441Y-68211005D01*
X163838830Y-68025205D01*
X163432458Y-67896419D01*
X163056184Y-67806850D01*
X162572082Y-67715630D01*
X162043127Y-67631459D01*
X161532294Y-67563039D01*
X161102557Y-67519070D01*
X160816890Y-67508253D01*
X160737300Y-67524032D01*
X160802642Y-67625247D01*
X161010385Y-67864986D01*
X161323678Y-68201812D01*
X161534892Y-68420885D01*
X161950134Y-68852339D01*
X162338610Y-69266206D01*
X162636684Y-69594337D01*
X162714541Y-69684179D01*
X163057360Y-70089859D01*
X162647763Y-70343004D01*
X162273882Y-70613179D01*
X161939269Y-70914354D01*
X161932445Y-70921574D01*
X161691224Y-71139446D01*
X161505240Y-71242291D01*
X161490112Y-71243563D01*
X161492768Y-71166950D01*
X161650349Y-70975130D01*
X161798064Y-70830813D01*
X162136029Y-70537002D01*
X162451913Y-70289692D01*
X162539090Y-70229435D01*
X162835552Y-70037371D01*
X161786432Y-68916047D01*
X161348139Y-68465557D01*
X160941130Y-68079391D01*
X160612180Y-67799968D01*
X160414709Y-67672069D01*
X160219242Y-67552077D01*
X160252259Y-67443367D01*
X160488257Y-67359888D01*
X160901735Y-67315589D01*
X161073104Y-67311944D01*
X161750630Y-67362855D01*
D12*
%TO.C,UT4*%
X173990000Y-57277000D02*
X173990000Y-43307000D01*
X187960000Y-57277000D02*
X173990000Y-57277000D01*
X187960000Y-43307000D02*
X187960000Y-57277000D01*
X173990000Y-43307000D02*
X187960000Y-43307000D01*
%TO.C,UT3*%
X133985000Y-57150000D02*
X133985000Y-43180000D01*
X147955000Y-57150000D02*
X133985000Y-57150000D01*
X147955000Y-43180000D02*
X147955000Y-57150000D01*
X133985000Y-43180000D02*
X147955000Y-43180000D01*
%TO.C,UT2*%
X94107000Y-57023000D02*
X94107000Y-43053000D01*
X108077000Y-57023000D02*
X94107000Y-57023000D01*
X108077000Y-43053000D02*
X108077000Y-57023000D01*
X94107000Y-43053000D02*
X108077000Y-43053000D01*
%TO.C,UT1*%
X53975000Y-57150000D02*
X53975000Y-43180000D01*
X67945000Y-57150000D02*
X53975000Y-57150000D01*
X67945000Y-43180000D02*
X67945000Y-57150000D01*
X53975000Y-43180000D02*
X67945000Y-43180000D01*
D13*
%TO.C,U1*%
X112268000Y-30734000D02*
X112268000Y-61214000D01*
X117348000Y-30734000D02*
X112268000Y-30734000D01*
X117348000Y-28194000D02*
X117348000Y-30734000D01*
X124968000Y-28194000D02*
X117348000Y-28194000D01*
X124968000Y-30734000D02*
X124968000Y-28194000D01*
X130048000Y-30734000D02*
X124968000Y-30734000D01*
X130048000Y-61214000D02*
X130048000Y-30734000D01*
X112268000Y-61214000D02*
X130048000Y-61214000D01*
D12*
%TO.C,RV1*%
X124385202Y-73228200D02*
G75*
G03*
X124385202Y-73228200I-3913002J0D01*
G01*
X120294401Y-64414401D02*
X137160000Y-64262000D01*
X137160000Y-64262000D02*
X137160000Y-82042000D01*
X137160000Y-82042000D02*
X120297420Y-82042059D01*
X120297420Y-82042059D02*
G75*
G02*
X120294401Y-64414401I174780J8813859D01*
G01*
%TO.C,REC1*%
X114046000Y-107188000D02*
X114046000Y-93218000D01*
X128016000Y-107188000D02*
X114046000Y-107188000D01*
X128016000Y-93218000D02*
X128016000Y-107188000D01*
X114046000Y-93218000D02*
X128016000Y-93218000D01*
%TO.C,R11*%
X184245000Y-63346000D02*
X184245000Y-63016000D01*
X177705000Y-63346000D02*
X184245000Y-63346000D01*
X177705000Y-63016000D02*
X177705000Y-63346000D01*
X184245000Y-60606000D02*
X184245000Y-60936000D01*
X177705000Y-60606000D02*
X184245000Y-60606000D01*
X177705000Y-60936000D02*
X177705000Y-60606000D01*
%TO.C,R10*%
X174847000Y-113257000D02*
X174847000Y-112927000D01*
X168307000Y-113257000D02*
X174847000Y-113257000D01*
X168307000Y-112927000D02*
X168307000Y-113257000D01*
X174847000Y-110517000D02*
X174847000Y-110847000D01*
X168307000Y-110517000D02*
X174847000Y-110517000D01*
X168307000Y-110847000D02*
X168307000Y-110517000D01*
%TO.C,R9*%
X145510000Y-71982000D02*
X145510000Y-71652000D01*
X138970000Y-71982000D02*
X145510000Y-71982000D01*
X138970000Y-71652000D02*
X138970000Y-71982000D01*
X145510000Y-69242000D02*
X145510000Y-69572000D01*
X138970000Y-69242000D02*
X145510000Y-69242000D01*
X138970000Y-69572000D02*
X138970000Y-69242000D01*
%TO.C,R8*%
X145637000Y-77316000D02*
X145637000Y-76986000D01*
X139097000Y-77316000D02*
X145637000Y-77316000D01*
X139097000Y-76986000D02*
X139097000Y-77316000D01*
X145637000Y-74576000D02*
X145637000Y-74906000D01*
X139097000Y-74576000D02*
X145637000Y-74576000D01*
X139097000Y-74906000D02*
X139097000Y-74576000D01*
%TO.C,R7*%
X144240000Y-63219000D02*
X144240000Y-62889000D01*
X137700000Y-63219000D02*
X144240000Y-63219000D01*
X137700000Y-62889000D02*
X137700000Y-63219000D01*
X144240000Y-60479000D02*
X144240000Y-60809000D01*
X137700000Y-60479000D02*
X144240000Y-60479000D01*
X137700000Y-60809000D02*
X137700000Y-60479000D01*
%TO.C,R6*%
X124301000Y-113384000D02*
X124301000Y-113054000D01*
X117761000Y-113384000D02*
X124301000Y-113384000D01*
X117761000Y-113054000D02*
X117761000Y-113384000D01*
X124301000Y-110644000D02*
X124301000Y-110974000D01*
X117761000Y-110644000D02*
X124301000Y-110644000D01*
X117761000Y-110974000D02*
X117761000Y-110644000D01*
%TO.C,R5*%
X107855000Y-85117000D02*
X107855000Y-85447000D01*
X114395000Y-85117000D02*
X107855000Y-85117000D01*
X114395000Y-85447000D02*
X114395000Y-85117000D01*
X107855000Y-87857000D02*
X107855000Y-87527000D01*
X114395000Y-87857000D02*
X107855000Y-87857000D01*
X114395000Y-87527000D02*
X114395000Y-87857000D01*
%TO.C,R4*%
X104362000Y-63219000D02*
X104362000Y-62889000D01*
X97822000Y-63219000D02*
X104362000Y-63219000D01*
X97822000Y-62889000D02*
X97822000Y-63219000D01*
X104362000Y-60479000D02*
X104362000Y-60809000D01*
X97822000Y-60479000D02*
X104362000Y-60479000D01*
X97822000Y-60809000D02*
X97822000Y-60479000D01*
%TO.C,R3*%
X73628000Y-113384000D02*
X73628000Y-113054000D01*
X67088000Y-113384000D02*
X73628000Y-113384000D01*
X67088000Y-113054000D02*
X67088000Y-113384000D01*
X73628000Y-110644000D02*
X73628000Y-110974000D01*
X67088000Y-110644000D02*
X73628000Y-110644000D01*
X67088000Y-110974000D02*
X67088000Y-110644000D01*
%TO.C,R2*%
X64230000Y-63346000D02*
X64230000Y-63016000D01*
X57690000Y-63346000D02*
X64230000Y-63346000D01*
X57690000Y-63016000D02*
X57690000Y-63346000D01*
X64230000Y-60606000D02*
X64230000Y-60936000D01*
X57690000Y-60606000D02*
X64230000Y-60606000D01*
X57690000Y-60936000D02*
X57690000Y-60606000D01*
%TO.C,Play/Pause1*%
X63373000Y-107061000D02*
X63373000Y-93091000D01*
X77343000Y-107061000D02*
X63373000Y-107061000D01*
X77343000Y-93091000D02*
X77343000Y-107061000D01*
X63373000Y-93091000D02*
X77343000Y-93091000D01*
%TO.C,MARKER1*%
X164592000Y-107188000D02*
X164592000Y-93218000D01*
X178562000Y-107188000D02*
X164592000Y-107188000D01*
X178562000Y-93218000D02*
X178562000Y-107188000D01*
X164592000Y-93218000D02*
X178562000Y-93218000D01*
%TO.C,D1*%
X118471000Y-84942000D02*
X118471000Y-88032000D01*
X123531000Y-86487000D02*
G75*
G03*
X123531000Y-86487000I-2500000J0D01*
G01*
X124021000Y-86486538D02*
G75*
G02*
X118471000Y-88031830I-2990000J-462D01*
G01*
X124021000Y-86487462D02*
G75*
G03*
X118471000Y-84942170I-2990000J462D01*
G01*
%TO.C,UT4*%
D13*
X179832142Y-41870380D02*
X179832142Y-42679904D01*
X179879761Y-42775142D01*
X179927380Y-42822761D01*
X180022619Y-42870380D01*
X180213095Y-42870380D01*
X180308333Y-42822761D01*
X180355952Y-42775142D01*
X180403571Y-42679904D01*
X180403571Y-41870380D01*
X180736904Y-41870380D02*
X181308333Y-41870380D01*
X181022619Y-42870380D02*
X181022619Y-41870380D01*
X182070238Y-42203714D02*
X182070238Y-42870380D01*
X181832142Y-41822761D02*
X181594047Y-42537047D01*
X182213095Y-42537047D01*
%TO.C,UT3*%
X139827142Y-41743380D02*
X139827142Y-42552904D01*
X139874761Y-42648142D01*
X139922380Y-42695761D01*
X140017619Y-42743380D01*
X140208095Y-42743380D01*
X140303333Y-42695761D01*
X140350952Y-42648142D01*
X140398571Y-42552904D01*
X140398571Y-41743380D01*
X140731904Y-41743380D02*
X141303333Y-41743380D01*
X141017619Y-42743380D02*
X141017619Y-41743380D01*
X141541428Y-41743380D02*
X142160476Y-41743380D01*
X141827142Y-42124333D01*
X141970000Y-42124333D01*
X142065238Y-42171952D01*
X142112857Y-42219571D01*
X142160476Y-42314809D01*
X142160476Y-42552904D01*
X142112857Y-42648142D01*
X142065238Y-42695761D01*
X141970000Y-42743380D01*
X141684285Y-42743380D01*
X141589047Y-42695761D01*
X141541428Y-42648142D01*
%TO.C,UT2*%
X99949142Y-41616380D02*
X99949142Y-42425904D01*
X99996761Y-42521142D01*
X100044380Y-42568761D01*
X100139619Y-42616380D01*
X100330095Y-42616380D01*
X100425333Y-42568761D01*
X100472952Y-42521142D01*
X100520571Y-42425904D01*
X100520571Y-41616380D01*
X100853904Y-41616380D02*
X101425333Y-41616380D01*
X101139619Y-42616380D02*
X101139619Y-41616380D01*
X101711047Y-41711619D02*
X101758666Y-41664000D01*
X101853904Y-41616380D01*
X102092000Y-41616380D01*
X102187238Y-41664000D01*
X102234857Y-41711619D01*
X102282476Y-41806857D01*
X102282476Y-41902095D01*
X102234857Y-42044952D01*
X101663428Y-42616380D01*
X102282476Y-42616380D01*
%TO.C,UT1*%
X59817142Y-41743380D02*
X59817142Y-42552904D01*
X59864761Y-42648142D01*
X59912380Y-42695761D01*
X60007619Y-42743380D01*
X60198095Y-42743380D01*
X60293333Y-42695761D01*
X60340952Y-42648142D01*
X60388571Y-42552904D01*
X60388571Y-41743380D01*
X60721904Y-41743380D02*
X61293333Y-41743380D01*
X61007619Y-42743380D02*
X61007619Y-41743380D01*
X62150476Y-42743380D02*
X61579047Y-42743380D01*
X61864761Y-42743380D02*
X61864761Y-41743380D01*
X61769523Y-41886238D01*
X61674285Y-41981476D01*
X61579047Y-42029095D01*
%TO.C,RV1*%
X120467380Y-73747238D02*
X119991190Y-74080571D01*
X120467380Y-74318666D02*
X119467380Y-74318666D01*
X119467380Y-73937714D01*
X119515000Y-73842476D01*
X119562619Y-73794857D01*
X119657857Y-73747238D01*
X119800714Y-73747238D01*
X119895952Y-73794857D01*
X119943571Y-73842476D01*
X119991190Y-73937714D01*
X119991190Y-74318666D01*
X119467380Y-73461523D02*
X120467380Y-73128190D01*
X119467380Y-72794857D01*
X120467380Y-71937714D02*
X120467380Y-72509142D01*
X120467380Y-72223428D02*
X119467380Y-72223428D01*
X119610238Y-72318666D01*
X119705476Y-72413904D01*
X119753095Y-72509142D01*
%TO.C,REC1*%
X119911952Y-92781380D02*
X119578619Y-92305190D01*
X119340523Y-92781380D02*
X119340523Y-91781380D01*
X119721476Y-91781380D01*
X119816714Y-91829000D01*
X119864333Y-91876619D01*
X119911952Y-91971857D01*
X119911952Y-92114714D01*
X119864333Y-92209952D01*
X119816714Y-92257571D01*
X119721476Y-92305190D01*
X119340523Y-92305190D01*
X120340523Y-92257571D02*
X120673857Y-92257571D01*
X120816714Y-92781380D02*
X120340523Y-92781380D01*
X120340523Y-91781380D01*
X120816714Y-91781380D01*
X121816714Y-92686142D02*
X121769095Y-92733761D01*
X121626238Y-92781380D01*
X121531000Y-92781380D01*
X121388142Y-92733761D01*
X121292904Y-92638523D01*
X121245285Y-92543285D01*
X121197666Y-92352809D01*
X121197666Y-92209952D01*
X121245285Y-92019476D01*
X121292904Y-91924238D01*
X121388142Y-91829000D01*
X121531000Y-91781380D01*
X121626238Y-91781380D01*
X121769095Y-91829000D01*
X121816714Y-91876619D01*
X122769095Y-92781380D02*
X122197666Y-92781380D01*
X122483380Y-92781380D02*
X122483380Y-91781380D01*
X122388142Y-91924238D01*
X122292904Y-92019476D01*
X122197666Y-92067095D01*
%TO.C,R11*%
X180332142Y-60058380D02*
X179998809Y-59582190D01*
X179760714Y-60058380D02*
X179760714Y-59058380D01*
X180141666Y-59058380D01*
X180236904Y-59106000D01*
X180284523Y-59153619D01*
X180332142Y-59248857D01*
X180332142Y-59391714D01*
X180284523Y-59486952D01*
X180236904Y-59534571D01*
X180141666Y-59582190D01*
X179760714Y-59582190D01*
X181284523Y-60058380D02*
X180713095Y-60058380D01*
X180998809Y-60058380D02*
X180998809Y-59058380D01*
X180903571Y-59201238D01*
X180808333Y-59296476D01*
X180713095Y-59344095D01*
X182236904Y-60058380D02*
X181665476Y-60058380D01*
X181951190Y-60058380D02*
X181951190Y-59058380D01*
X181855952Y-59201238D01*
X181760714Y-59296476D01*
X181665476Y-59344095D01*
%TO.C,R10*%
X170934142Y-109969380D02*
X170600809Y-109493190D01*
X170362714Y-109969380D02*
X170362714Y-108969380D01*
X170743666Y-108969380D01*
X170838904Y-109017000D01*
X170886523Y-109064619D01*
X170934142Y-109159857D01*
X170934142Y-109302714D01*
X170886523Y-109397952D01*
X170838904Y-109445571D01*
X170743666Y-109493190D01*
X170362714Y-109493190D01*
X171886523Y-109969380D02*
X171315095Y-109969380D01*
X171600809Y-109969380D02*
X171600809Y-108969380D01*
X171505571Y-109112238D01*
X171410333Y-109207476D01*
X171315095Y-109255095D01*
X172505571Y-108969380D02*
X172600809Y-108969380D01*
X172696047Y-109017000D01*
X172743666Y-109064619D01*
X172791285Y-109159857D01*
X172838904Y-109350333D01*
X172838904Y-109588428D01*
X172791285Y-109778904D01*
X172743666Y-109874142D01*
X172696047Y-109921761D01*
X172600809Y-109969380D01*
X172505571Y-109969380D01*
X172410333Y-109921761D01*
X172362714Y-109874142D01*
X172315095Y-109778904D01*
X172267476Y-109588428D01*
X172267476Y-109350333D01*
X172315095Y-109159857D01*
X172362714Y-109064619D01*
X172410333Y-109017000D01*
X172505571Y-108969380D01*
%TO.C,R9*%
X142073333Y-68694380D02*
X141740000Y-68218190D01*
X141501904Y-68694380D02*
X141501904Y-67694380D01*
X141882857Y-67694380D01*
X141978095Y-67742000D01*
X142025714Y-67789619D01*
X142073333Y-67884857D01*
X142073333Y-68027714D01*
X142025714Y-68122952D01*
X141978095Y-68170571D01*
X141882857Y-68218190D01*
X141501904Y-68218190D01*
X142549523Y-68694380D02*
X142740000Y-68694380D01*
X142835238Y-68646761D01*
X142882857Y-68599142D01*
X142978095Y-68456285D01*
X143025714Y-68265809D01*
X143025714Y-67884857D01*
X142978095Y-67789619D01*
X142930476Y-67742000D01*
X142835238Y-67694380D01*
X142644761Y-67694380D01*
X142549523Y-67742000D01*
X142501904Y-67789619D01*
X142454285Y-67884857D01*
X142454285Y-68122952D01*
X142501904Y-68218190D01*
X142549523Y-68265809D01*
X142644761Y-68313428D01*
X142835238Y-68313428D01*
X142930476Y-68265809D01*
X142978095Y-68218190D01*
X143025714Y-68122952D01*
%TO.C,R8*%
X142200333Y-74028380D02*
X141867000Y-73552190D01*
X141628904Y-74028380D02*
X141628904Y-73028380D01*
X142009857Y-73028380D01*
X142105095Y-73076000D01*
X142152714Y-73123619D01*
X142200333Y-73218857D01*
X142200333Y-73361714D01*
X142152714Y-73456952D01*
X142105095Y-73504571D01*
X142009857Y-73552190D01*
X141628904Y-73552190D01*
X142771761Y-73456952D02*
X142676523Y-73409333D01*
X142628904Y-73361714D01*
X142581285Y-73266476D01*
X142581285Y-73218857D01*
X142628904Y-73123619D01*
X142676523Y-73076000D01*
X142771761Y-73028380D01*
X142962238Y-73028380D01*
X143057476Y-73076000D01*
X143105095Y-73123619D01*
X143152714Y-73218857D01*
X143152714Y-73266476D01*
X143105095Y-73361714D01*
X143057476Y-73409333D01*
X142962238Y-73456952D01*
X142771761Y-73456952D01*
X142676523Y-73504571D01*
X142628904Y-73552190D01*
X142581285Y-73647428D01*
X142581285Y-73837904D01*
X142628904Y-73933142D01*
X142676523Y-73980761D01*
X142771761Y-74028380D01*
X142962238Y-74028380D01*
X143057476Y-73980761D01*
X143105095Y-73933142D01*
X143152714Y-73837904D01*
X143152714Y-73647428D01*
X143105095Y-73552190D01*
X143057476Y-73504571D01*
X142962238Y-73456952D01*
%TO.C,R7*%
X140803333Y-59931380D02*
X140470000Y-59455190D01*
X140231904Y-59931380D02*
X140231904Y-58931380D01*
X140612857Y-58931380D01*
X140708095Y-58979000D01*
X140755714Y-59026619D01*
X140803333Y-59121857D01*
X140803333Y-59264714D01*
X140755714Y-59359952D01*
X140708095Y-59407571D01*
X140612857Y-59455190D01*
X140231904Y-59455190D01*
X141136666Y-58931380D02*
X141803333Y-58931380D01*
X141374761Y-59931380D01*
%TO.C,R6*%
X120864333Y-110096380D02*
X120531000Y-109620190D01*
X120292904Y-110096380D02*
X120292904Y-109096380D01*
X120673857Y-109096380D01*
X120769095Y-109144000D01*
X120816714Y-109191619D01*
X120864333Y-109286857D01*
X120864333Y-109429714D01*
X120816714Y-109524952D01*
X120769095Y-109572571D01*
X120673857Y-109620190D01*
X120292904Y-109620190D01*
X121721476Y-109096380D02*
X121531000Y-109096380D01*
X121435761Y-109144000D01*
X121388142Y-109191619D01*
X121292904Y-109334476D01*
X121245285Y-109524952D01*
X121245285Y-109905904D01*
X121292904Y-110001142D01*
X121340523Y-110048761D01*
X121435761Y-110096380D01*
X121626238Y-110096380D01*
X121721476Y-110048761D01*
X121769095Y-110001142D01*
X121816714Y-109905904D01*
X121816714Y-109667809D01*
X121769095Y-109572571D01*
X121721476Y-109524952D01*
X121626238Y-109477333D01*
X121435761Y-109477333D01*
X121340523Y-109524952D01*
X121292904Y-109572571D01*
X121245285Y-109667809D01*
%TO.C,R5*%
X110958333Y-89309380D02*
X110625000Y-88833190D01*
X110386904Y-89309380D02*
X110386904Y-88309380D01*
X110767857Y-88309380D01*
X110863095Y-88357000D01*
X110910714Y-88404619D01*
X110958333Y-88499857D01*
X110958333Y-88642714D01*
X110910714Y-88737952D01*
X110863095Y-88785571D01*
X110767857Y-88833190D01*
X110386904Y-88833190D01*
X111863095Y-88309380D02*
X111386904Y-88309380D01*
X111339285Y-88785571D01*
X111386904Y-88737952D01*
X111482142Y-88690333D01*
X111720238Y-88690333D01*
X111815476Y-88737952D01*
X111863095Y-88785571D01*
X111910714Y-88880809D01*
X111910714Y-89118904D01*
X111863095Y-89214142D01*
X111815476Y-89261761D01*
X111720238Y-89309380D01*
X111482142Y-89309380D01*
X111386904Y-89261761D01*
X111339285Y-89214142D01*
%TO.C,R4*%
X100925333Y-59931380D02*
X100592000Y-59455190D01*
X100353904Y-59931380D02*
X100353904Y-58931380D01*
X100734857Y-58931380D01*
X100830095Y-58979000D01*
X100877714Y-59026619D01*
X100925333Y-59121857D01*
X100925333Y-59264714D01*
X100877714Y-59359952D01*
X100830095Y-59407571D01*
X100734857Y-59455190D01*
X100353904Y-59455190D01*
X101782476Y-59264714D02*
X101782476Y-59931380D01*
X101544380Y-58883761D02*
X101306285Y-59598047D01*
X101925333Y-59598047D01*
%TO.C,R3*%
X70191333Y-110096380D02*
X69858000Y-109620190D01*
X69619904Y-110096380D02*
X69619904Y-109096380D01*
X70000857Y-109096380D01*
X70096095Y-109144000D01*
X70143714Y-109191619D01*
X70191333Y-109286857D01*
X70191333Y-109429714D01*
X70143714Y-109524952D01*
X70096095Y-109572571D01*
X70000857Y-109620190D01*
X69619904Y-109620190D01*
X70524666Y-109096380D02*
X71143714Y-109096380D01*
X70810380Y-109477333D01*
X70953238Y-109477333D01*
X71048476Y-109524952D01*
X71096095Y-109572571D01*
X71143714Y-109667809D01*
X71143714Y-109905904D01*
X71096095Y-110001142D01*
X71048476Y-110048761D01*
X70953238Y-110096380D01*
X70667523Y-110096380D01*
X70572285Y-110048761D01*
X70524666Y-110001142D01*
%TO.C,R2*%
X60793333Y-60058380D02*
X60460000Y-59582190D01*
X60221904Y-60058380D02*
X60221904Y-59058380D01*
X60602857Y-59058380D01*
X60698095Y-59106000D01*
X60745714Y-59153619D01*
X60793333Y-59248857D01*
X60793333Y-59391714D01*
X60745714Y-59486952D01*
X60698095Y-59534571D01*
X60602857Y-59582190D01*
X60221904Y-59582190D01*
X61174285Y-59153619D02*
X61221904Y-59106000D01*
X61317142Y-59058380D01*
X61555238Y-59058380D01*
X61650476Y-59106000D01*
X61698095Y-59153619D01*
X61745714Y-59248857D01*
X61745714Y-59344095D01*
X61698095Y-59486952D01*
X61126666Y-60058380D01*
X61745714Y-60058380D01*
%TO.C,Play/Pause1*%
X65762761Y-92654380D02*
X65762761Y-91654380D01*
X66143714Y-91654380D01*
X66238952Y-91702000D01*
X66286571Y-91749619D01*
X66334190Y-91844857D01*
X66334190Y-91987714D01*
X66286571Y-92082952D01*
X66238952Y-92130571D01*
X66143714Y-92178190D01*
X65762761Y-92178190D01*
X66905619Y-92654380D02*
X66810380Y-92606761D01*
X66762761Y-92511523D01*
X66762761Y-91654380D01*
X67715142Y-92654380D02*
X67715142Y-92130571D01*
X67667523Y-92035333D01*
X67572285Y-91987714D01*
X67381809Y-91987714D01*
X67286571Y-92035333D01*
X67715142Y-92606761D02*
X67619904Y-92654380D01*
X67381809Y-92654380D01*
X67286571Y-92606761D01*
X67238952Y-92511523D01*
X67238952Y-92416285D01*
X67286571Y-92321047D01*
X67381809Y-92273428D01*
X67619904Y-92273428D01*
X67715142Y-92225809D01*
X68096095Y-91987714D02*
X68334190Y-92654380D01*
X68572285Y-91987714D02*
X68334190Y-92654380D01*
X68238952Y-92892476D01*
X68191333Y-92940095D01*
X68096095Y-92987714D01*
X69667523Y-91606761D02*
X68810380Y-92892476D01*
X70000857Y-92654380D02*
X70000857Y-91654380D01*
X70381809Y-91654380D01*
X70477047Y-91702000D01*
X70524666Y-91749619D01*
X70572285Y-91844857D01*
X70572285Y-91987714D01*
X70524666Y-92082952D01*
X70477047Y-92130571D01*
X70381809Y-92178190D01*
X70000857Y-92178190D01*
X71429428Y-92654380D02*
X71429428Y-92130571D01*
X71381809Y-92035333D01*
X71286571Y-91987714D01*
X71096095Y-91987714D01*
X71000857Y-92035333D01*
X71429428Y-92606761D02*
X71334190Y-92654380D01*
X71096095Y-92654380D01*
X71000857Y-92606761D01*
X70953238Y-92511523D01*
X70953238Y-92416285D01*
X71000857Y-92321047D01*
X71096095Y-92273428D01*
X71334190Y-92273428D01*
X71429428Y-92225809D01*
X72334190Y-91987714D02*
X72334190Y-92654380D01*
X71905619Y-91987714D02*
X71905619Y-92511523D01*
X71953238Y-92606761D01*
X72048476Y-92654380D01*
X72191333Y-92654380D01*
X72286571Y-92606761D01*
X72334190Y-92559142D01*
X72762761Y-92606761D02*
X72858000Y-92654380D01*
X73048476Y-92654380D01*
X73143714Y-92606761D01*
X73191333Y-92511523D01*
X73191333Y-92463904D01*
X73143714Y-92368666D01*
X73048476Y-92321047D01*
X72905619Y-92321047D01*
X72810380Y-92273428D01*
X72762761Y-92178190D01*
X72762761Y-92130571D01*
X72810380Y-92035333D01*
X72905619Y-91987714D01*
X73048476Y-91987714D01*
X73143714Y-92035333D01*
X74000857Y-92606761D02*
X73905619Y-92654380D01*
X73715142Y-92654380D01*
X73619904Y-92606761D01*
X73572285Y-92511523D01*
X73572285Y-92130571D01*
X73619904Y-92035333D01*
X73715142Y-91987714D01*
X73905619Y-91987714D01*
X74000857Y-92035333D01*
X74048476Y-92130571D01*
X74048476Y-92225809D01*
X73572285Y-92321047D01*
X75000857Y-92654380D02*
X74429428Y-92654380D01*
X74715142Y-92654380D02*
X74715142Y-91654380D01*
X74619904Y-91797238D01*
X74524666Y-91892476D01*
X74429428Y-91940095D01*
%TO.C,MARKER1*%
X168386523Y-92781380D02*
X168386523Y-91781380D01*
X168719857Y-92495666D01*
X169053190Y-91781380D01*
X169053190Y-92781380D01*
X169481761Y-92495666D02*
X169957952Y-92495666D01*
X169386523Y-92781380D02*
X169719857Y-91781380D01*
X170053190Y-92781380D01*
X170957952Y-92781380D02*
X170624619Y-92305190D01*
X170386523Y-92781380D02*
X170386523Y-91781380D01*
X170767476Y-91781380D01*
X170862714Y-91829000D01*
X170910333Y-91876619D01*
X170957952Y-91971857D01*
X170957952Y-92114714D01*
X170910333Y-92209952D01*
X170862714Y-92257571D01*
X170767476Y-92305190D01*
X170386523Y-92305190D01*
X171386523Y-92781380D02*
X171386523Y-91781380D01*
X171957952Y-92781380D02*
X171529380Y-92209952D01*
X171957952Y-91781380D02*
X171386523Y-92352809D01*
X172386523Y-92257571D02*
X172719857Y-92257571D01*
X172862714Y-92781380D02*
X172386523Y-92781380D01*
X172386523Y-91781380D01*
X172862714Y-91781380D01*
X173862714Y-92781380D02*
X173529380Y-92305190D01*
X173291285Y-92781380D02*
X173291285Y-91781380D01*
X173672238Y-91781380D01*
X173767476Y-91829000D01*
X173815095Y-91876619D01*
X173862714Y-91971857D01*
X173862714Y-92114714D01*
X173815095Y-92209952D01*
X173767476Y-92257571D01*
X173672238Y-92305190D01*
X173291285Y-92305190D01*
X174815095Y-92781380D02*
X174243666Y-92781380D01*
X174529380Y-92781380D02*
X174529380Y-91781380D01*
X174434142Y-91924238D01*
X174338904Y-92019476D01*
X174243666Y-92067095D01*
%TO.C,D1*%
X120292904Y-82979380D02*
X120292904Y-81979380D01*
X120531000Y-81979380D01*
X120673857Y-82027000D01*
X120769095Y-82122238D01*
X120816714Y-82217476D01*
X120864333Y-82407952D01*
X120864333Y-82550809D01*
X120816714Y-82741285D01*
X120769095Y-82836523D01*
X120673857Y-82931761D01*
X120531000Y-82979380D01*
X120292904Y-82979380D01*
X121816714Y-82979380D02*
X121245285Y-82979380D01*
X121531000Y-82979380D02*
X121531000Y-81979380D01*
X121435761Y-82122238D01*
X121340523Y-82217476D01*
X121245285Y-82265095D01*
%TD*%
M02*
