M48
; DRILL file {KiCad (5.1.8)-1} date 10/05/21 14:24:23
; FORMAT={-:-/ absolute / metric / decimal}
; #@! TF.CreationDate,2021-10-05T14:24:23+02:00
; #@! TF.GenerationSoftware,Kicad,Pcbnew,(5.1.8)-1
; #@! TF.FileFunction,Plated,1,2,PTH
FMAT,2
METRIC
T1C0.400
T2C0.600
T3C0.800
T4C0.900
T5C1.100
T6C1.400
T7C1.500
%
G90
G05
T1
X113.538Y-67.183
T2
X74.676Y-63.246
X76.676Y-63.246
T3
X82.296Y-62.484
X87.296Y-62.484
X117.221Y-112.014
X124.841Y-112.014
X80.772Y-65.532
X88.392Y-65.532
X138.557Y-75.946
X146.177Y-75.946
X97.282Y-61.849
X104.902Y-61.849
X57.15Y-61.976
X64.77Y-61.976
X138.43Y-70.612
X146.05Y-70.612
X137.16Y-61.849
X144.78Y-61.849
X167.767Y-111.887
X175.387Y-111.887
X177.165Y-61.976
X184.785Y-61.976
X107.315Y-86.487
X114.935Y-86.487
X66.548Y-112.014
X74.168Y-112.014
T4
X119.761Y-86.487
X122.301Y-86.487
T5
X113.538Y-32.004
X113.538Y-34.544
X113.538Y-37.084
X113.538Y-39.624
X113.538Y-42.164
X113.538Y-44.704
X113.538Y-47.244
X113.538Y-49.784
X113.538Y-52.324
X113.538Y-54.864
X113.538Y-57.404
X113.538Y-59.944
X128.778Y-32.004
X128.778Y-34.544
X128.778Y-37.084
X128.778Y-39.624
X128.778Y-42.164
X128.778Y-44.704
X128.778Y-47.244
X128.778Y-49.784
X128.778Y-52.324
X128.778Y-54.864
X128.778Y-57.404
X128.778Y-59.944
T6
X72.924Y-35.052
X72.924Y-41.402
X72.924Y-47.752
X89.154Y-35.052
X89.154Y-41.402
X89.154Y-47.752
X152.934Y-35.052
X152.934Y-41.402
X152.934Y-47.752
X169.164Y-35.052
X169.164Y-41.402
X169.164Y-47.752
X138.049Y-102.616
X138.049Y-108.966
X138.049Y-115.316
X154.279Y-102.616
X154.279Y-108.966
X154.279Y-115.316
T7
X137.16Y-47.625
X143.51Y-45.085
X117.221Y-97.663
X123.571Y-95.123
X177.165Y-47.752
X183.515Y-45.212
X130.175Y-68.072
X130.175Y-73.152
X130.175Y-78.232
X135.255Y-68.072
X135.255Y-73.152
X135.255Y-78.232
X167.767Y-97.663
X174.117Y-95.123
X57.15Y-47.625
X63.5Y-45.085
X97.282Y-47.498
X103.632Y-44.958
X66.548Y-97.536
X72.898Y-94.996
T0
M30
